<?xml version="1.0" encoding="iso-8859-1"?>
<!-- Generator: Adobe Illustrator 19.0.0, SVG Export Plug-In . SVG Version: 6.00 Build 0)  -->
<svg version="1.1" id="Capa_1" xmlns="http://www.w3.org/2000/svg" xmlns:xlink="http://www.w3.org/1999/xlink" x="0px" y="0px"
	 viewBox="0 0 480 480" style="enable-background:new 0 0 480 480;" xml:space="preserve">
<g>
	<g>
		<path d="M472,168c4.418,0,8-3.582,8-8v-56c0-4.418-3.582-8-8-8H8c-4.418,0-8,3.582-8,8v56c0,4.418,3.582,8,8,8
			c39.765,0,72,32.235,72,72c0,39.764-32.235,72-72,72c-4.418,0-8,3.582-8,8v56c0,4.418,3.582,8,8,8h464c4.418,0,8-3.582,8-8v-56
			c0-4.418-3.582-8-8-8c-39.764,0-72-32.236-72-72C400,200.235,432.236,168,472,168z M384.312,247.952
			c3.84,42.318,37.37,75.849,79.688,79.688V368H336v-16c0-4.418-3.582-8-8-8s-8,3.582-8,8v16H16v-40.36
			c48.402-4.392,84.08-47.19,79.688-95.592C91.849,189.73,58.318,156.2,16,152.36V112h304v16c0,4.418,3.582,8,8,8s8-3.582,8-8v-16
			h128v40.36C415.598,156.752,379.92,199.549,384.312,247.952z"/>
	</g>
</g>
<g>
	<g>
		<path d="M328,152c-4.418,0-8,3.582-8,8v32c0,4.418,3.582,8,8,8s8-3.582,8-8v-32C336,155.582,332.418,152,328,152z"/>
	</g>
</g>
<g>
	<g>
		<path d="M328,216c-4.418,0-8,3.582-8,8v32c0,4.418,3.582,8,8,8s8-3.582,8-8v-32C336,219.582,332.418,216,328,216z"/>
	</g>
</g>
<g>
	<g>
		<path d="M328,280c-4.418,0-8,3.582-8,8v32c0,4.418,3.582,8,8,8s8-3.582,8-8v-32C336,283.582,332.418,280,328,280z"/>
	</g>
</g>
<g>
	<g>
		<path d="M294.4,211.2c-1.511-2.014-3.882-3.2-6.4-3.2h-55.264l-17.112-53.744c-1.339-4.211-5.837-6.539-10.048-5.2
			c-2.475,0.787-4.414,2.726-5.2,5.2L183.264,208H128c-4.418,0-8,3.582-8,8c0,2.518,1.186,4.889,3.2,6.4l44.856,33.256
			l-17.152,53.872c-1.374,4.199,0.917,8.717,5.116,10.091c2.489,0.814,5.218,0.359,7.308-1.219L208,285.28l44.672,33.12
			c3.546,2.635,8.558,1.897,11.193-1.65c1.537-2.069,1.984-4.751,1.199-7.206l-17.152-53.864L292.8,222.4
			C296.335,219.749,297.051,214.735,294.4,211.2z M233.792,246.232c-2.747,2.038-3.895,5.597-2.856,8.856l11.368,35.712
			L212.8,268.896c-2.831-2.102-6.705-2.102-9.536,0L173.696,290.8l11.368-35.712c1.039-3.259-0.109-6.818-2.856-8.856L152.216,224
			h36.896c3.491-0.003,6.577-2.27,7.624-5.6L208,183.048l11.264,35.352c1.047,3.33,4.133,5.597,7.624,5.6h36.896L233.792,246.232z"
			/>
	</g>
</g>
<g>
	<g>
		<path d="M296,128h-24c-4.418,0-8,3.582-8,8s3.582,8,8,8h24c4.418,0,8-3.582,8-8S300.418,128,296,128z"/>
	</g>
</g>
<g>
	<g>
		<path d="M296,152h-8c-4.418,0-8,3.582-8,8s3.582,8,8,8h8c4.418,0,8-3.582,8-8S300.418,152,296,152z"/>
	</g>
</g>
<g>
	<g>
		<path d="M120,312H88c-4.418,0-8,3.582-8,8s3.582,8,8,8h32c4.418,0,8-3.582,8-8S124.418,312,120,312z"/>
	</g>
</g>
<g>
	<g>
		<path d="M144,336H88c-4.418,0-8,3.582-8,8s3.582,8,8,8h56c4.418,0,8-3.582,8-8S148.418,336,144,336z"/>
	</g>
</g>
<g>
	<g>
		<path d="M408,336h-48c-4.418,0-8,3.582-8,8s3.582,8,8,8h48c4.418,0,8-3.582,8-8S412.418,336,408,336z"/>
	</g>
</g>
<g>
	<g>
		<path d="M384,312h-24c-4.418,0-8,3.582-8,8s3.582,8,8,8h24c4.418,0,8-3.582,8-8S388.418,312,384,312z"/>
	</g>
</g>
<g>
</g>
<g>
</g>
<g>
</g>
<g>
</g>
<g>
</g>
<g>
</g>
<g>
</g>
<g>
</g>
<g>
</g>
<g>
</g>
<g>
</g>
<g>
</g>
<g>
</g>
<g>
</g>
<g>
</g>
</svg>
