<svg id="Layer_3" enable-background="new 0 0 64 64" height="512" viewBox="0 0 64 64" width="512" xmlns="http://www.w3.org/2000/svg"><path d="m32 44h14.5c2.481 0 4.5-2.019 4.5-4.5s-2.019-4.5-4.5-4.5h-9.5c-18.748 0-34-15.252-34-34h-2c0 19.851 16.149 36 36 36h9.5c1.379 0 2.5 1.121 2.5 2.5s-1.121 2.5-2.5 2.5h-14.5c-11.579 0-21 9.421-21 21h2c0-10.477 8.523-19 19-19z"/><path d="m46.5 23h-9.5c-12.131 0-22-9.869-22-22h-2c0 13.233 10.767 24 24 24h9.5c7.995 0 14.5 6.505 14.5 14.5s-6.505 14.5-14.5 14.5h-14.5c-4.963 0-9 4.037-9 9h2c0-3.859 3.141-7 7-7h14.5c9.098 0 16.5-7.402 16.5-16.5s-7.402-16.5-16.5-16.5z"/><path d="m17 63h2c0-.623.044-1.247.132-1.854l-1.98-.285c-.101.701-.152 1.421-.152 2.139z"/><path d="m25.089 51.986c1.064-.669 2.216-1.179 3.423-1.514l-.535-1.928c-1.395.388-2.724.976-3.952 1.748z"/><path d="m32.245 48h4.047v2h-4.047z"/><path d="m8.81 11.282 1.879-.686c-.445-1.219-.807-2.48-1.076-3.75l-1.958.415c.289 1.362.678 2.716 1.155 4.021z"/><path d="m40.339 48h4.048v2h-4.048z"/><path d="m12.733 18.642 1.617-1.178c-.766-1.05-1.463-2.162-2.073-3.306l-1.763.942c.653 1.225 1.4 2.417 2.219 3.542z"/><path d="m18.378 56.713 1.814.84c.526-1.138 1.215-2.194 2.046-3.139l-1.502-1.32c-.958 1.089-1.752 2.306-2.358 3.619z"/><path d="m55.635 44.68c.744-1.31 1.189-2.735 1.323-4.237l-1.992-.178c-.108 1.216-.468 2.368-1.069 3.427z"/><path d="m38.001 29h4.047v2h-4.047z"/><path d="m49.678 31.614.748-1.855c-1.25-.504-2.571-.759-3.926-.759h-.405v2h.405c1.098 0 2.167.207 3.178.614z"/><path d="m48.218 47.827.402 1.959c1.475-.303 2.841-.907 4.06-1.797l-1.178-1.615c-.987.719-2.092 1.208-3.284 1.453z"/><path d="m52.651 33.634c.844.885 1.476 1.915 1.876 3.063l1.889-.66c-.496-1.418-1.275-2.691-2.317-3.784z"/><path d="m16.862 20.454-1.439 1.389c.966 1 2.011 1.941 3.107 2.8l1.232-1.575c-1.023-.802-1.999-1.681-2.9-2.614z"/><path d="m22.998 25.253-1.002 1.73c1.206.698 2.471 1.316 3.76 1.838l.75-1.854c-1.202-.486-2.383-1.063-3.508-1.714z"/><path d="m30.22 28.174-.482 1.941c1.351.335 2.736.578 4.119.722l.207-1.988c-1.291-.135-2.585-.363-3.844-.675z"/><path d="m9.065 2.933c-.044-.636-.065-1.287-.065-1.933h-2c0 .691.023 1.388.069 2.067z"/><path d="m29 19c1.654 0 3-1.346 3-3 0-1.302-.839-2.402-2-2.816v-2.184h11c.404 0 .77-.243.924-.617.155-.374.069-.804-.217-1.09l-3.293-3.293 3.293-3.293c.286-.286.372-.716.217-1.09-.154-.374-.52-.617-.924-.617h-12c-.553 0-1 .447-1 1v8 3.184c-1.161.414-2 1.514-2 2.816 0 1.654 1.346 3 3 3zm1-16h8.586l-2.293 2.293c-.391.391-.391 1.023 0 1.414l2.293 2.293h-8.586zm-1 12c.552 0 1 .448 1 1s-.448 1-1 1-1-.448-1-1 .448-1 1-1z"/><path d="m50 22c1.654 0 3-1.346 3-3 0-1.302-.839-2.402-2-2.816v-2.184h11c.404 0 .77-.243.924-.617.155-.374.069-.804-.217-1.09l-3.293-3.293 3.293-3.293c.286-.286.372-.716.217-1.09-.154-.374-.52-.617-.924-.617h-12c-.553 0-1 .447-1 1v8 3.184c-1.161.414-2 1.514-2 2.816 0 1.654 1.346 3 3 3zm1-16h8.586l-2.293 2.293c-.391.391-.391 1.023 0 1.414l2.293 2.293h-8.586zm-1 12c.552 0 1 .448 1 1s-.448 1-1 1-1-.448-1-1 .448-1 1-1z"/><path d="m5 49.184v-2.184h11c.404 0 .77-.243.924-.617.155-.374.069-.804-.217-1.09l-3.293-3.293 3.293-3.293c.286-.286.372-.716.217-1.09-.154-.374-.52-.617-.924-.617h-12c-.553 0-1 .447-1 1v8 3.184c-1.161.414-2 1.514-2 2.816 0 1.654 1.346 3 3 3s3-1.346 3-3c0-1.302-.839-2.402-2-2.816zm0-10.184h8.586l-2.293 2.293c-.391.391-.391 1.023 0 1.414l2.293 2.293h-8.586zm-1 14c-.552 0-1-.448-1-1s.448-1 1-1 1 .448 1 1-.448 1-1 1z"/></svg>