<svg xmlns="http://www.w3.org/2000/svg" height="512pt" version="1.1" viewBox="0 -38 512 512" width="512pt">
<g id="surface1">
<path d="M 497 15 L 512 15 L 512 0 L 497 0 C 484.59375 0 474.5 10.960938 474.5 24.4375 L 474.5 133.121094 C 443.925781 111.945312 406.324219 105.746094 371.65625 114.230469 L 313.539062 51.925781 C 306.203125 44.058594 295.828125 39.707031 285.089844 40.019531 L 223.339844 41.703125 C 203.902344 42.238281 184.535156 47.316406 167.335938 56.390625 L 87.773438 98.371094 C 81.695312 101.582031 74.839844 103.28125 67.949219 103.28125 L 55.828125 103.285156 L 55.828125 85.058594 L 0 85.058594 L 0 100.058594 L 40.828125 100.058594 L 40.828125 265.058594 L 0 265.058594 L 0 280.058594 L 55.828125 280.058594 L 55.828125 261.828125 L 73.75 261.824219 C 80.628906 261.824219 87.210938 263.953125 92.789062 267.980469 L 132.332031 296.5625 C 149.148438 308.714844 169.082031 315.054688 189.359375 315.054688 C 197.402344 315.054688 205.503906 314.058594 213.476562 312.027344 L 287.113281 293.289062 C 293.304688 306.210938 301.621094 317.9375 311.902344 328.214844 C 336.730469 353.042969 369.386719 365.5625 402.105469 365.5625 C 427.402344 365.5625 452.734375 358.070312 474.5 342.996094 L 474.5 410.566406 C 474.5 424.039062 484.59375 435 497 435 L 512 435 L 512 420 L 497 420 C 492.933594 420 489.5 415.679688 489.5 410.566406 L 489.5 24.4375 C 489.5 19.320312 492.933594 15 497 15 Z M 209.777344 297.492188 C 186.015625 303.535156 160.988281 298.765625 141.117188 284.40625 L 101.574219 255.824219 C 93.421875 249.933594 83.800781 246.824219 73.746094 246.824219 L 55.828125 246.828125 L 55.828125 118.285156 L 67.949219 118.28125 C 77.273438 118.28125 86.550781 115.980469 94.777344 111.636719 L 174.332031 69.65625 C 189.511719 61.652344 206.601562 57.171875 223.753906 56.695312 L 285.503906 55.011719 C 291.949219 54.832031 298.171875 57.433594 302.570312 62.15625 L 355.804688 119.226562 C 342.480469 124.40625 329.867188 131.894531 318.585938 141.679688 L 289.726562 119.320312 C 283.753906 114.707031 276.066406 112.734375 268.632812 113.898438 L 229.402344 120.042969 C 219.984375 121.511719 212.125 127.617188 208.375 136.378906 L 188.8125 182.019531 C 184.058594 193.101562 187.011719 205.835938 196.164062 213.71875 L 217.546875 232.089844 C 224.253906 237.863281 233.394531 240.0625 241.992188 237.964844 L 286.175781 227.199219 C 294.609375 225.144531 303.308594 227.582031 309.449219 233.726562 C 312.378906 236.65625 314.539062 240.324219 315.691406 244.339844 C 317.550781 250.800781 316.730469 257.570312 313.382812 263.402344 C 310.035156 269.234375 304.601562 273.363281 298.082031 275.019531 Z M 307.753906 152.265625 C 291.839844 169.71875 281.234375 190.875 276.832031 214.039062 L 238.4375 223.390625 C 234.53125 224.347656 230.378906 223.347656 227.328125 220.71875 L 205.941406 202.34375 C 201.78125 198.761719 200.433594 192.96875 202.597656 187.933594 L 222.164062 142.285156 C 223.867188 138.304688 227.4375 135.53125 231.71875 134.863281 L 270.960938 128.71875 C 274.332031 128.183594 277.832031 129.085938 280.546875 131.183594 Z M 474.5 324.125 C 430.058594 361.632812 363.925781 359.023438 322.507812 317.609375 C 314.15625 309.257812 307.277344 299.828125 301.980469 289.5 C 312.378906 286.800781 321.042969 280.191406 326.390625 270.867188 C 331.777344 261.484375 333.09375 250.589844 330.105469 240.195312 C 328.253906 233.746094 324.777344 227.839844 320.054688 223.117188 C 312.632812 215.695312 302.882812 211.636719 292.738281 211.484375 C 297.5625 191.449219 307.730469 173.289062 322.507812 158.511719 C 363.925781 117.09375 430.054688 114.484375 474.5 151.992188 Z M 474.5 324.125 " style=" stroke:none;fill-rule:nonzero;fill:rgb(0%,0%,0%);fill-opacity:1;" />
<path d="M 364.5 302.5 L 379.5 302.5 L 379.5 254 L 411 254 C 432.230469 254 449.5 236.730469 449.5 215.5 C 449.5 194.269531 432.230469 177 411 177 L 364.5 177 Z M 379.5 192 L 411 192 C 423.957031 192 434.5 202.542969 434.5 215.5 C 434.5 228.457031 423.957031 239 411 239 L 379.5 239 Z M 379.5 192 " style=" stroke:none;fill-rule:nonzero;fill:rgb(0%,0%,0%);fill-opacity:1;" />
<path d="M 186 341 L 201 341 L 201 356 L 186 356 Z M 186 341 " style=" stroke:none;fill-rule:nonzero;fill:rgb(0%,0%,0%);fill-opacity:1;" />
<path d="M 246 341 L 261 341 L 261 356 L 246 356 Z M 246 341 " style=" stroke:none;fill-rule:nonzero;fill:rgb(0%,0%,0%);fill-opacity:1;" />
<path d="M 216 341 L 231 341 L 231 356 L 216 356 Z M 216 341 " style=" stroke:none;fill-rule:nonzero;fill:rgb(0%,0%,0%);fill-opacity:1;" />
<path d="M 186 381 L 201 381 L 201 396 L 186 396 Z M 186 381 " style=" stroke:none;fill-rule:nonzero;fill:rgb(0%,0%,0%);fill-opacity:1;" />
<path d="M 216 381 L 231 381 L 231 396 L 216 396 Z M 216 381 " style=" stroke:none;fill-rule:nonzero;fill:rgb(0%,0%,0%);fill-opacity:1;" />
<path d="M 156 381 L 171 381 L 171 396 L 156 396 Z M 156 381 " style=" stroke:none;fill-rule:nonzero;fill:rgb(0%,0%,0%);fill-opacity:1;" />
<path d="M 107.558594 121.847656 L 120.824219 114.847656 L 127.824219 128.113281 L 114.558594 135.113281 Z M 107.558594 121.847656 " style=" stroke:none;fill-rule:nonzero;fill:rgb(0%,0%,0%);fill-opacity:1;" />
<path d="M 134.09375 107.84375 L 175.558594 85.964844 L 182.558594 99.230469 L 141.09375 121.109375 Z M 134.09375 107.84375 " style=" stroke:none;fill-rule:nonzero;fill:rgb(0%,0%,0%);fill-opacity:1;" />
<path d="M 10.5 235.5 L 25.5 235.5 L 25.5 250.5 L 10.5 250.5 Z M 10.5 235.5 " style=" stroke:none;fill-rule:nonzero;fill:rgb(0%,0%,0%);fill-opacity:1;" />
<path d="M 420.246094 333.871094 C 435.144531 331.058594 449.371094 324.683594 461.382812 315.445312 L 452.234375 303.554688 C 442.082031 311.367188 430.058594 316.753906 417.464844 319.132812 Z M 420.246094 333.871094 " style=" stroke:none;fill-rule:nonzero;fill:rgb(0%,0%,0%);fill-opacity:1;" />
<path d="M 400.175781 320.546875 C 396.808594 320.46875 393.410156 320.179688 390.085938 319.695312 L 387.914062 334.535156 C 391.84375 335.109375 395.851562 335.449219 399.820312 335.542969 C 400.582031 335.558594 401.339844 335.566406 402.097656 335.566406 C 402.769531 335.566406 403.4375 335.5625 404.109375 335.546875 L 403.800781 320.550781 C 402.59375 320.574219 401.386719 320.574219 400.175781 320.546875 Z M 400.175781 320.546875 " style=" stroke:none;fill-rule:nonzero;fill:rgb(0%,0%,0%);fill-opacity:1;" />
</g>
</svg>