<svg height="512pt" viewBox="-56 0 512 512" width="512pt" xmlns="http://www.w3.org/2000/svg"><g fill="#00e9cc"><path d="m159.8125 464.90625h16.03125v15.03125h-16.03125zm0 0"/><path d="m191.875 464.90625h16.03125v15.03125h-16.03125zm0 0"/><path d="m223.9375 464.90625h16.03125v15.03125h-16.03125zm0 0"/><path d="m336.15625 240.46875v15.03125h1.003906v47.59375l47.589844-47.59375h7.515625v-15.03125zm0 0"/><path d="m63.625 240.46875h-56.109375v15.03125h7.515625l46.253906 46.257812v-46.257812h2.339844zm0 0"/></g><path d="m343.671875 188.761719v-69.027344h-15.03125v181.246094l-64.625 64.625-20.933594-20.933594h-86.382812l-20.933594 20.933594-64.625-64.625v-285.949219h177.34375v88.171875h95.1875v-18.644531l-84.558594-84.558594h-203.003906v188.761719l-56.109375 56.109375v267.128906h399.78125v-267.128906zm-80.15625-163.105469 62.515625 62.515625h-62.515625zm80.15625 184.359375 37.964844 37.96875-37.964844 37.96875zm41.078125 56.109375v220.21875l-110.105469-110.109375zm-221.824219 93.578125h73.929688l137.265625 137.265625h-348.464844zm-147.894531 126.640625v-220.21875l110.105469 110.109375zm41.078125-200.390625-37.96875-37.96875 37.96875-37.96875zm0 0"/><path d="m143.28125 95.6875v-55.609375h-47.09375v55.609375h15.03125v-16.53125h17.03125v16.53125zm-32.0625-31.5625v-9.015625h17.03125v9.015625zm0 0"/><path d="m192.375 95.6875h15.03125v224.4375h-15.03125zm0 0"/><path d="m95.6875 120.234375h72.140625v15.03125h-72.140625zm0 0"/><path d="m95.6875 160.3125h72.140625v15.03125h-72.140625zm0 0"/><path d="m95.6875 200.390625h72.140625v15.03125h-72.140625zm0 0"/><path d="m95.6875 240.46875h72.140625v15.03125h-72.140625zm0 0"/><path d="m95.6875 280.546875h72.140625v15.03125h-72.140625zm0 0"/><path d="m231.953125 120.234375h72.140625v15.03125h-72.140625zm0 0"/><path d="m231.953125 160.3125h72.140625v15.03125h-72.140625zm0 0"/><path d="m231.953125 200.390625h72.140625v15.03125h-72.140625zm0 0"/><path d="m231.953125 240.46875h72.140625v15.03125h-72.140625zm0 0"/><path d="m231.953125 280.546875h72.140625v15.03125h-72.140625zm0 0"/></svg>