<svg xmlns="http://www.w3.org/2000/svg" xmlns:xlink="http://www.w3.org/1999/xlink" version="1.1" style="" xml:space="preserve" width="31" height="27"><rect id="backgroundrect" width="100%" height="100%" x="0" y="0" fill="none" stroke="none"/>
















<g class="currentLayer" style=""><title>Layer 1</title><path style="" d="M10.273749915838241,5.009 c0.44400000000000006,-0.44400000000000006 1.143,-0.44400000000000006 1.5870000000000002,0 c0.42900000000000005,0.42900000000000005 0.42900000000000005,1.143 0,1.5710000000000002 l-8.047,8.047 h26.554 c0.6190000000000001,0 1.127,0.49200000000000005 1.127,1.111 c0,0.6190000000000001 -0.508,1.127 -1.127,1.127 H3.8137499158382417 l8.047,8.032 c0.42900000000000005,0.44400000000000006 0.42900000000000005,1.159 0,1.5870000000000002 c-0.44400000000000006,0.44400000000000006 -1.143,0.44400000000000006 -1.5870000000000002,0 l-9.952,-9.952 c-0.42900000000000005,-0.42900000000000005 -0.42900000000000005,-1.143 0,-1.5710000000000002 L10.273749915838241,5.009 z" id="svg_1" class="selected" stroke="#ffffff" stroke-opacity="1" fill="#ffffff" fill-opacity="1"/><g id="svg_2" class="">
</g><g id="svg_3" class="">
</g><g id="svg_4" class="">
</g><g id="svg_5" class="">
</g><g id="svg_6" class="">
</g><g id="svg_7" class="">
</g><g id="svg_8" class="">
</g><g id="svg_9" class="">
</g><g id="svg_10" class="">
</g><g id="svg_11" class="">
</g><g id="svg_12" class="">
</g><g id="svg_13" class="">
</g><g id="svg_14" class="">
</g><g id="svg_15" class="">
</g><g id="svg_16" class="">
</g></g></svg>