<?xml version="1.0" encoding="iso-8859-1"?>
<!-- Generator: Adobe Illustrator 19.0.0, SVG Export Plug-In . SVG Version: 6.00 Build 0)  -->
<svg version="1.1" id="Capa_1" xmlns="http://www.w3.org/2000/svg" xmlns:xlink="http://www.w3.org/1999/xlink" x="0px" y="0px"
	 viewBox="0 0 512 512" style="enable-background:new 0 0 512 512;" xml:space="preserve">
<g>
	<g>
		<path d="M502,492h-66V10c0-5.523-4.477-10-10-10H86c-5.523,0-10,4.477-10,10v482H50c-5.51,0-10,4.49-10,10s4.49,10,10,10h452
			c5.51,0,10-4.49,10-10S507.51,492,502,492z M376,492h-40V368h40V492z M416,492h-20V358c0-5.523-4.477-10-10-10h-60
			c-5.523,0-10,4.477-10,10v134H96V118h320V492z M416,98H96V20h320V98z"/>
	</g>
</g>
<g>
	<g>
		<path d="M10,492c-5.51,0-10,4.49-10,10s4.49,10,10,10s10-4.49,10-10S15.51,492,10,492z"/>
	</g>
</g>
<g>
	<g>
		<path d="M149.89,75.087h-14.593c0,0,0-34.865,0-35.071c0-2.432-3.132-3.009-4.992-3.009c-1.863,0-4.992,0.61-4.992,3.008
			c0,0,0,40.447,0,40.703c0,2.193,2.525,3.073,4.352,3.073c0,0,20.132,0,20.224,0c2.176,0,2.88-2.609,2.88-4.352
			C152.769,77.69,152.058,75.087,149.89,75.087z"/>
	</g>
</g>
<g>
	<g>
		<path d="M170.104,37.791c-1.071-0.584-2.502-0.784-3.511-0.784c-1.861,0-4.992,0.614-4.992,3.008c0,0,0,40.396,0,40.702
			c0,2.387,3.136,3.073,4.992,3.073c1.775,0,4.991-0.697,4.991-3.072c0,0,0-40.539,0-40.704
			C171.584,38.967,170.958,38.257,170.104,37.791z"/>
	</g>
</g>
<g>
	<g>
		<path d="M208.128,58.447c3.626-1.578,5.44-4.928,5.44-10.048c0-7.594-4.268-11.392-12.8-11.392c0,0-13.086,0-13.12,0
			c-1.787,0-4.353,0.815-4.353,3.072c0,0,0,40.433,0,40.703c0,2.159,2.605,3.009,4.353,3.009c0,0,14.189,0,14.208,0
			c8.38,0,12.863-5.79,12.863-13.76v-1.344C214.72,63.99,212.731,60.163,208.128,58.447z M199.937,45.711
			c2.307,0,3.647,2.323,3.648,4.479c0,2.162-1.283,4.417-3.647,4.417h-6.721v-8.896C193.228,45.711,199.9,45.711,199.937,45.711z
			 M204.867,69.205c-0.146,3.018-1.866,5.882-5.251,5.882h-6.4v-12.8c0,0,6.369,0,6.4,0
			C203.237,62.287,205.029,65.842,204.867,69.205z"/>
	</g>
</g>
<g>
	<g>
		<path d="M256.83,77.839l-7.807-14.144c5.162-2.005,7.744-6.336,7.744-12.992c0-9.13-5.248-13.696-15.744-13.696
			c0,0-13.196,0-13.248,0c-1.597,0-3.072,1.293-3.072,3.008c0,0,0,40.381,0,40.702c0,2.394,3.136,3.074,4.992,3.074
			c1.882,0,4.992-0.666,4.992-3.072V65.295h4.224c0,0,8.705,16.901,8.768,17.023c1.497,2.907,5.456,1.844,7.456,0.193
			C256.218,81.617,257.925,79.377,256.83,77.839z M245.141,56.063c-0.99,0.985-2.393,1.552-4.118,1.552h-6.336V45.711
			c0,0,6.325,0,6.336,0c3.709,0,5.76,2.248,5.76,5.952C246.783,53.483,246.198,55.011,245.141,56.063z"/>
	</g>
</g>
<g>
	<g>
		<path d="M300.736,78.992c-0.001-0.001-11.953-38.99-11.968-39.041c-0.8-2.61-4.169-3.328-6.529-3.328
			c-2.384,0-5.695,0.727-6.527,3.328c0,0-11.896,39.013-11.904,39.04c-1.284,4.212,8.349,7.309,9.536,2.944l2.176-8h13.504
			c0,0,2.165,7.962,2.176,8.001C292.445,86.509,301.949,82.933,300.736,78.992z M277.567,66.255l4.672-17.152l4.672,17.152H277.567z
			"/>
	</g>
</g>
<g>
	<g>
		<path d="M341.503,77.839l-7.809-14.144c5.162-2.005,7.744-6.336,7.744-12.992c0-9.13-5.248-13.696-15.744-13.696
			c0,0-13.208,0-13.248,0c-1.646,0-3.071,1.348-3.071,3.008c0,0,0,40.588,0,40.704c0,2.375,3.149,3.072,4.992,3.072
			c1.886,0,4.991-0.679,4.991-3.072V65.295h4.225c0,0,8.744,16.977,8.768,17.024c1.486,2.886,5.461,1.84,7.456,0.192
			C340.988,81.536,342.629,79.422,341.503,77.839z M330.043,56.164c-0.022,0.023-0.045,0.046-0.068,0.068
			c-1.109,1.091-2.782,1.383-4.281,1.383h-6.336V45.711h6.336c1.606,0,3.404,0.361,4.521,1.615
			C332.055,49.392,331.96,54.178,330.043,56.164z"/>
	</g>
</g>
<g>
	<g>
		<path d="M382.751,38.223c-2.208-1.18-5.938-2.168-7.393,0.64l-8.896,16.448c0,0-8.9-16.339-8.96-16.448
			c-1.525-2.798-5.116-1.857-7.393-0.639c-1.134,0.607-2.909,2.071-2.143,3.584l13.248,21.952c0.17,0.256,0.256,0.555,0.256,0.896
			c0,0,0,16.061,0,16.065c0,2.378,3.137,3.072,4.992,3.072c1.91,0,4.992-0.627,4.992-3.072V64.655c0-0.341,0.085-0.64,0.256-0.896
			c0,0,12.979-21.611,13.182-21.949C385.768,40.348,383.82,38.795,382.751,38.223z"/>
	</g>
</g>
<g>
	<g>
		<path d="M186,138h-60c-5.523,0-10,4.477-10,10v60c0,5.523,4.477,10,10,10h60c5.523,0,10-4.477,10-10v-60
			C196,142.477,191.523,138,186,138z M176,198h-40v-40h40V198z"/>
	</g>
</g>
<g>
	<g>
		<path d="M286,138h-60c-5.523,0-10,4.477-10,10v60c0,5.523,4.477,10,10,10h60c5.523,0,10-4.477,10-10v-60
			C296,142.477,291.523,138,286,138z M276,198h-40v-40h40V198z"/>
	</g>
</g>
<g>
	<g>
		<path d="M386,138h-60c-5.523,0-10,4.477-10,10v60c0,5.523,4.477,10,10,10h60c5.523,0,10-4.477,10-10v-60
			C396,142.477,391.523,138,386,138z M376,198h-40v-40h40V198z"/>
	</g>
</g>
<g>
	<g>
		<path d="M186,238h-60c-5.523,0-10,4.477-10,10v60c0,5.523,4.477,10,10,10h60c5.523,0,10-4.477,10-10v-60
			C196,242.477,191.523,238,186,238z M176,298h-40v-40h40V298z"/>
	</g>
</g>
<g>
	<g>
		<path d="M286,238h-60c-5.523,0-10,4.477-10,10v60c0,5.523,4.477,10,10,10h60c5.523,0,10-4.477,10-10v-60
			C296,242.477,291.523,238,286,238z M276,298h-40v-40h40V298z"/>
	</g>
</g>
<g>
	<g>
		<path d="M386,238h-60c-5.523,0-10,4.477-10,10v60c0,5.523,4.477,10,10,10h60c5.523,0,10-4.477,10-10v-60
			C396,242.477,391.523,238,386,238z M376,298h-40v-40h40V298z"/>
	</g>
</g>
<g>
	<g>
		<path d="M286,348H126c-5.523,0-10,4.477-10,10v80c0,5.523,4.477,10,10,10h160c5.523,0,10-4.477,10-10v-80
			C296,352.477,291.523,348,286,348z M276,428H136v-60h140V428z"/>
	</g>
</g>
<g>
</g>
<g>
</g>
<g>
</g>
<g>
</g>
<g>
</g>
<g>
</g>
<g>
</g>
<g>
</g>
<g>
</g>
<g>
</g>
<g>
</g>
<g>
</g>
<g>
</g>
<g>
</g>
<g>
</g>
</svg>
