<svg height="512pt" viewBox="0 -98 512 512" width="512pt" xmlns="http://www.w3.org/2000/svg"><path d="m504.5 26.992188c4.144531 0 7.5-3.355469 7.5-7.5v-11.992188c0-4.144531-3.355469-7.5-7.5-7.5h-497c-4.144531 0-7.5 3.355469-7.5 7.5v11.992188c0 4.144531 3.355469 7.5 7.5 7.5 4.136719 0 7.5 3.363281 7.5 7.5 0 4.136718-3.363281 7.5-7.5 7.5-4.144531 0-7.5 3.355468-7.5 7.5v11c0 4.144531 3.355469 7.5 7.5 7.5 4.136719.003906 7.5 3.367187 7.5 7.5 0 4.136718-3.363281 7.5-7.5 7.5-4.144531 0-7.5 3.359374-7.5 7.5v11.003906c0 4.144531 3.355469 7.5 7.5 7.5 4.136719 0 7.5 3.367187 7.5 7.5 0 4.136718-3.363281 7.5-7.5 7.5-4.144531 0-7.5 3.359375-7.5 7.5v11.003906c0 4.144531 3.355469 7.5 7.5 7.5 4.136719 0 7.5 3.363281 7.5 7.5s-3.363281 7.5-7.5 7.5c-4.144531 0-7.5 3.355469-7.5 7.5v11.003906c0 4.140625 3.355469 7.5 7.5 7.5 4.136719 0 7.5 3.363282 7.5 7.5 0 4.132813-3.363281 7.5-7.5 7.5-4.144531 0-7.5 3.355469-7.5 7.5v11c0 4.144532 3.355469 7.5 7.5 7.5 4.136719 0 7.5 3.367188 7.5 7.5 0 4.136719-3.363281 7.5-7.5 7.5-4.144531 0-7.5 3.359375-7.5 7.5v11.003906c0 4.144532 3.355469 7.5 7.5 7.5 4.136719 0 7.5 3.363282 7.5 7.5 0 4.136719-3.363281 7.5-7.5 7.5-4.144531 0-7.5 3.355469-7.5 7.5v11.992188c0 4.144531 3.355469 7.5 7.5 7.5h497c4.144531 0 7.5-3.355469 7.5-7.5v-11.992188c0-4.144531-3.355469-7.5-7.5-7.5-4.136719 0-7.5-3.363281-7.5-7.5 0-4.136718 3.363281-7.5 7.5-7.5 4.144531 0 7.5-3.355468 7.5-7.5v-11.003906c0-4.140625-3.355469-7.5-7.5-7.5-4.136719 0-7.5-3.363281-7.5-7.5 0-4.136718 3.363281-7.5 7.5-7.5 4.144531 0 7.5-3.355468 7.5-7.5v-11c0-4.144531-3.355469-7.5-7.5-7.5-4.136719 0-7.5-3.367187-7.5-7.5 0-4.136718 3.363281-7.5 7.5-7.5 4.144531 0 7.5-3.359375 7.5-7.5v-11.003906c0-4.144531-3.355469-7.5-7.5-7.5-4.136719 0-7.5-3.363281-7.5-7.5s3.363281-7.5 7.5-7.5c4.144531 0 7.5-3.355469 7.5-7.5v-11.003906c0-4.140625-3.355469-7.5-7.5-7.5-4.136719 0-7.5-3.363282-7.5-7.5 0-4.132813 3.363281-7.5 7.5-7.5 4.144531 0 7.5-3.355469 7.5-7.5v-11.003906c0-4.140626-3.355469-7.5-7.5-7.5-4.136719 0-7.5-3.363282-7.5-7.5 0-4.132813 3.363281-7.5 7.5-7.5 4.144531 0 7.5-3.355469 7.5-7.5v-11c0-4.144532-3.355469-7.5-7.5-7.5-4.136719 0-7.5-3.363282-7.5-7.5 0-4.136719 3.363281-7.5 7.5-7.5zm-9.269531 110.007812c-7.796875 3.535156-13.230469 11.394531-13.230469 20.5s5.433594 16.964844 13.230469 20.5c-7.796875 3.539062-13.230469 11.398438-13.230469 20.503906 0 9.101563 5.4375 16.960938 13.230469 20.5-7.792969 3.539063-13.230469 11.394532-13.230469 20.5 0 9.105469 5.4375 16.964844 13.230469 20.503906-7.792969 3.539063-13.230469 11.394532-13.230469 20.5 0 8.320313 4.539062 15.597657 11.269531 19.492188h-154.4375v-16.871094c0-4.140625-3.371093-7.507812-7.5-7.507812-4.140625 0-7.5 3.367187-7.5 7.507812v16.871094h-305.101562c6.730469-3.894531 11.269531-11.171875 11.269531-19.492188 0-9.105468-5.4375-16.960937-13.230469-20.5 7.792969-3.539062 13.230469-11.398437 13.230469-20.503906 0-9.101562-5.4375-16.960937-13.230469-20.5 7.792969-3.539062 13.230469-11.398437 13.230469-20.5 0-9.105468-5.4375-16.964844-13.230469-20.503906 7.796875-3.535156 13.230469-11.394531 13.230469-20.5s-5.433594-16.964844-13.230469-20.5c7.792969-3.539062 13.230469-11.398438 13.230469-20.503906 0-9.101563-5.4375-16.960938-13.230469-20.5 7.792969-3.539063 13.230469-11.394532 13.230469-20.503906 0-9.101563-5.4375-16.960938-13.230469-20.5 7.792969-3.539063 13.230469-11.394532 13.230469-20.5 0-8.320313-4.539062-15.597657-11.269531-19.492188h305.101562v19.878906c0 4.132813 3.359375 7.492188 7.5 7.492188 4.128907 0 7.5-3.359375 7.5-7.492188v-19.878906h154.4375c-6.730469 3.894531-11.269531 11.171875-11.269531 19.492188 0 9.105468 5.433594 16.960937 13.230469 20.5-7.796875 3.539062-13.230469 11.398437-13.230469 20.5 0 9.105468 5.4375 16.964843 13.230469 20.503906-7.792969 3.539062-13.230469 11.398437-13.230469 20.5 0 9.105468 5.433594 16.964844 13.230469 20.503906zm0 0"/><path d="m430.328125 52.5h-357.128906c-4.128907 0-7.5 3.371094-7.5 7.5 0 4.140625 3.371093 7.5 7.5 7.5h250.632812v22.539062c0 4.140626 3.359375 7.5 7.5 7.5 4.128907 0 7.5-3.359374 7.5-7.5v-22.539062h90.996094v180h-90.996094v-19.539062c0-4.140626-3.371093-7.5-7.5-7.5-4.140625 0-7.5 3.359374-7.5 7.5v19.539062h-243.132812v-157.5c0-4.128906-3.359375-7.5-7.5-7.5-4.128907 0-7.5 3.371094-7.5 7.5v158c.011719 7.988281 6.511719 14.5 14.511719 14.5h351.578124c7.0625 0 13.003907-5.320312 13.039063-14.460938v-30.089843c0-5.933594 0-141.523438 0-151.058594-.085937-7.976563-6.527344-14.390625-14.5-14.390625zm0 0"/><path d="m257.5625 232.5c4.144531 0 7.5-3.355469 7.5-7.5v-7.769531c6.941406-1.316407 12.207031-7.414063 12.207031-14.730469v-105c0-8.011719-6.320312-14.558594-14.234375-14.960938-.25-.023437-.507812-.039062-.765625-.039062-.609375 0-120.164062-.023438-120.769531.039062-7.914062.402344-14.230469 6.949219-14.230469 14.960938v105c0 7.519531 5.566407 13.746094 12.792969 14.820312v7.679688c0 4.144531 3.359375 7.5 7.5 7.5 4.144531 0 7.5-3.355469 7.5-7.5v-7.5h95v7.5c0 4.144531 3.359375 7.5 7.5 7.5zm-115.292969-29.988281v-30.011719h120v30c-14.417969 0-104.320312.011719-120 .011719zm120-75.011719v30h-52.5v-30zm-67.5 30h-52.5v-30h52.5zm67.5-60v15h-120v-15zm0 0"/><path d="m323.832031 200.371094c0 4.140625 3.359375 7.5 7.5 7.5 4.128907 0 7.5-3.359375 7.5-7.5v-27.582032c0-4.128906-3.371093-7.5-7.5-7.5-4.140625 0-7.5 3.371094-7.5 7.5zm0 0"/><path d="m331.332031 152.710938c4.128907 0 7.5-3.371094 7.5-7.5v-27.582032c0-4.140625-3.371093-7.507812-7.5-7.507812-4.140625 0-7.5 3.367187-7.5 7.507812v27.582032c0 4.128906 3.359375 7.5 7.5 7.5zm0 0"/><path d="m354.355469 226.796875c0 4.140625 3.355469 7.496094 7.496093 7.496094h44.996094c4.144532 0 7.5-3.355469 7.5-7.496094v-14.25c0-10.335937-8.410156-18.746094-18.75-18.746094-4.214844 0-8.109375 1.398438-11.246094 3.757813-3.136718-2.359375-7.03125-3.757813-11.25-3.757813-10.335937 0-18.746093 8.410157-18.746093 18.746094zm37.496093-14.25c0-2.066406 1.683594-3.75 3.75-3.75 2.066407 0 3.75 1.683594 3.75 3.75v6.75h-7.5zm-22.496093 0c0-2.066406 1.683593-3.75 3.75-3.75 2.066406 0 3.75 1.683594 3.75 3.75v6.75h-7.5zm0 0"/><path d="m389.003906 165.421875h-27.148437c-4.140625 0-7.5 3.355469-7.5 7.496094s3.359375 7.5 7.5 7.5h27.148437c13.976563 0 25.34375-11.4375 25.34375-25.496094 0-14.0625-11.367187-25.496094-25.34375-25.496094h-27.148437c-4.140625 0-7.5 3.355469-7.5 7.496094 0 4.144531 3.359375 7.5 7.5 7.5h27.148437c5.703125 0 10.347656 4.710937 10.347656 10.5s-4.644531 10.5-10.347656 10.5zm0 0"/><path d="m361.855469 85.386719c-4.140625 0-7.5 3.355469-7.5 7.5v5.246093c0 10.339844 8.410156 18.75 18.75 18.75 10.335937 0 18.746093-8.410156 18.746093-18.75 0-2.066406 1.683594-3.75 3.75-3.75 2.066407 0 3.75 1.683594 3.75 3.75v11.25c0 4.140626 3.355469 7.5 7.5 7.5 4.140626 0 7.496094-3.359374 7.496094-7.5v-11.25c0-10.335937-8.410156-18.746093-18.746094-18.746093-10.335937 0-18.746093 8.410156-18.746093 18.746093 0 2.070313-1.683594 3.75-3.75 3.75-2.066407 0-3.75-1.679687-3.75-3.75v-5.246093c0-4.144531-3.359375-7.5-7.5-7.5zm0 0"/></svg>