<?xml version="1.0" encoding="UTF-8" standalone="no"?>
<!DOCTYPE svg PUBLIC "-//W3C//DTD SVG 1.1//EN" "http://www.w3.org/Graphics/SVG/1.1/DTD/svg11.dtd">
<svg version="1.1" xmlns="http://www.w3.org/2000/svg" xmlns:xlink="http://www.w3.org/1999/xlink" preserveAspectRatio="xMidYMid meet" viewBox="0 0 640 640" width="640" height="640"><defs><path d="M346.21 1.06L359.1 2.38L371.84 4.2L384.41 6.51L396.81 9.32L409.02 12.6L421.03 16.34L432.84 20.54L444.44 25.19L455.8 30.27L466.93 35.77L477.81 41.69L488.43 48.01L498.79 54.73L508.86 61.82L518.65 69.29L528.13 77.13L537.31 85.31L546.17 93.83L554.69 102.69L562.87 111.87L570.71 121.35L578.18 131.14L585.27 141.21L591.99 151.57L598.31 162.19L604.23 173.07L609.73 184.2L614.81 195.56L619.46 207.16L623.66 218.97L627.4 230.98L630.68 243.19L633.49 255.59L635.8 268.16L637.62 280.9L638.94 293.79L639.73 306.83L640 320L639.92 327.01L639.7 333.98L639.32 340.91L638.8 347.81L638.14 354.66L637.32 361.47L636.37 368.24L635.28 374.96L634.04 381.63L632.67 388.25L631.17 394.83L629.52 401.35L627.75 407.82L625.84 414.23L623.8 420.59L621.64 426.89L619.35 433.13L616.93 439.31L614.39 445.42L611.73 451.48L608.94 457.46L606.04 463.38L603.02 469.23L599.88 475.01L596.63 480.71L593.27 486.35L589.79 491.91L586.21 497.39L582.51 502.79L578.71 508.11L574.81 513.35L570.8 518.51L566.69 523.59L562.48 528.58L558.17 533.48L553.76 538.29L549.26 543.01L544.66 547.64L539.97 552.17L535.19 556.61L535.51 556.88L524.86 565.77L524.78 565.84L524.7 565.91L524.62 565.97L524.54 566.04L524.46 566.1L524.38 566.17L524.29 566.23L524.21 566.29L524.13 566.36L524.05 566.42L523.96 566.48L523.88 566.55L523.8 566.61L523.72 566.67L523.63 566.73L523.55 566.8L523.47 566.86L523.38 566.92L523.3 566.98L523.21 567.04L523.13 567.1L523.05 567.17L522.96 567.23L522.88 567.29L522.8 567.35L522.71 567.41L522.63 567.47L522.54 567.54L522.46 567.6L522.38 567.66L522.29 567.72L522.21 567.79L522.13 567.85L522.05 567.91L521.96 567.97L521.88 568.04L521.8 568.1L521.72 568.17L521.63 568.23L521.55 568.3L521.19 568.59L520.82 568.89L520.45 569.19L520.09 569.48L519.72 569.78L519.35 570.07L518.98 570.36L518.61 570.66L518.24 570.95L517.87 571.24L517.5 571.53L517.13 571.82L516.76 572.11L516.38 572.4L516.01 572.69L515.64 572.98L515.26 573.27L514.89 573.55L514.52 573.84L514.14 574.13L513.77 574.41L513.39 574.7L513.01 574.98L512.64 575.26L512.26 575.55L511.88 575.83L511.5 576.11L511.13 576.39L510.75 576.67L510.37 576.95L509.99 577.23L509.61 577.51L509.23 577.79L508.85 578.07L508.47 578.35L508.08 578.63L507.7 578.91L507.32 579.18L506.94 579.46L506.55 579.74L506.39 579.85L506.23 579.97L506.08 580.08L505.92 580.2L505.76 580.31L505.6 580.43L505.44 580.54L505.12 580.77L504.96 580.89L504.8 581L504.64 581.12L504.48 581.23L504.32 581.35L504.16 581.46L504.01 581.58L503.85 581.69L503.69 581.81L503.53 581.92L503.37 582.04L503.21 582.15L503.05 582.26L502.89 582.38L502.73 582.49L502.57 582.61L502.41 582.72L502.25 582.83L502.09 582.95L501.93 583.06L501.77 583.17L501.61 583.28L501.45 583.4L501.29 583.51L501.13 583.62L500.97 583.73L500.81 583.84L500.65 583.95L500.49 584.06L500.33 584.17L500.17 584.29L499.72 584.59L499.27 584.9L498.82 585.2L498.37 585.51L497.91 585.81L497.46 586.11L497.01 586.41L496.56 586.71L496.1 587.01L495.65 587.31L495.19 587.61L494.74 587.91L494.28 588.2L493.82 588.5L493.37 588.79L492.91 589.09L492.45 589.38L491.99 589.67L491.53 589.97L491.07 590.26L490.61 590.55L490.15 590.84L489.69 591.12L489.23 591.41L488.76 591.7L488.3 591.98L487.84 592.27L487.37 592.56L486.91 592.84L486.44 593.12L485.98 593.41L485.51 593.69L485.05 593.97L484.58 594.25L484.11 594.53L483.64 594.81L483.18 595.09L482.71 595.37L482.24 595.64L481.77 595.92L481.64 596L481.51 596.07L481.39 596.15L481.26 596.22L481.13 596.3L481 596.37L480.88 596.44L480.75 596.52L480.62 596.59L480.49 596.67L480.37 596.74L480.24 596.82L480.11 596.89L479.98 596.96L479.86 597.04L479.73 597.11L479.6 597.19L479.47 597.26L479.35 597.33L479.22 597.41L479.09 597.48L478.96 597.55L478.84 597.63L478.71 597.7L478.58 597.77L478.45 597.85L478.32 597.92L478.2 597.99L478.07 598.07L477.94 598.14L477.81 598.21L477.69 598.28L477.56 598.36L477.43 598.43L477.3 598.5L477.17 598.58L477.05 598.65L476.92 598.72L476.79 598.79L476.66 598.87L476.14 599.16L475.63 599.44L475.11 599.73L474.59 600.02L474.07 600.31L473.56 600.59L473.04 600.88L472.52 601.16L472 601.45L471.48 601.73L470.95 602.01L470.43 602.29L469.91 602.57L469.39 602.85L468.86 603.12L468.34 603.4L467.81 603.68L467.29 603.95L466.76 604.23L466.24 604.5L465.71 604.77L465.18 605.04L464.65 605.31L464.13 605.58L463.6 605.85L463.07 606.12L462.54 606.38L462.01 606.65L461.47 606.91L460.94 607.18L460.41 607.44L459.88 607.7L459.34 607.96L458.81 608.22L458.27 608.48L457.74 608.74L457.2 608.99L456.66 609.25L456.13 609.5L455.59 609.76L455.52 609.79L455.45 609.82L455.39 609.85L455.32 609.88L455.25 609.91L455.19 609.94L455.12 609.97L455.06 610L454.99 610.04L454.92 610.07L454.86 610.1L454.79 610.13L454.72 610.16L454.66 610.19L454.59 610.22L454.52 610.25L454.45 610.28L454.39 610.31L454.32 610.34L454.25 610.37L454.19 610.4L454.12 610.43L453.92 610.52L453.85 610.55L453.79 610.58L453.72 610.61L453.65 610.64L453.59 610.67L453.52 610.7L453.45 610.73L453.39 610.76L453.32 610.79L453.25 610.82L453.19 610.85L453.12 610.88L453.05 610.91L452.99 610.94L452.92 610.97L451.12 611.79L449.31 612.6L447.5 613.4L445.68 614.18L443.85 614.96L442.02 615.72L440.18 616.48L438.34 617.22L436.49 617.95L434.64 618.67L432.78 619.38L430.91 620.08L429.04 620.77L427.17 621.44L425.28 622.11L423.4 622.76L421.51 623.4L419.61 624.03L417.71 624.65L415.8 625.25L413.89 625.85L411.97 626.43L410.04 627L408.12 627.56L406.18 628.11L404.25 628.65L402.3 629.17L400.36 629.68L398.4 630.18L396.45 630.67L394.48 631.15L392.52 631.61L390.55 632.06L388.57 632.5L386.59 632.93L384.61 633.34L382.62 633.75L380.62 634.14L378.63 634.51L376.62 634.88L376.57 634.89L376.51 634.9L376.46 634.91L376.41 634.92L376.35 634.93L376.3 634.94L376.24 634.95L376.19 634.96L376.13 634.97L376.08 634.98L376.03 634.99L375.97 635L375.92 635.01L375.86 635.02L375.81 635.03L375.75 635.04L375.7 635.05L375.64 635.06L375.59 635.07L375.53 635.08L375.48 635.09L375.43 635.1L375.37 635.11L375.32 635.12L375.26 635.13L375.21 635.14L375.15 635.15L375.1 635.16L374.99 635.18L374.88 635.2L374.72 635.23L374.5 635.27L374.45 635.28L373.82 635.38L373.19 635.49L372.57 635.59L371.94 635.7L371.31 635.8L370.69 635.9L370.06 636L369.43 636.1L368.8 636.2L368.17 636.29L367.54 636.39L366.91 636.48L366.28 636.57L365.65 636.67L365.02 636.76L364.38 636.84L363.75 636.93L363.12 637.02L362.49 637.11L361.85 637.19L361.22 637.27L360.59 637.35L359.95 637.44L359.32 637.52L358.68 637.59L358.04 637.67L357.41 637.75L356.77 637.82L356.13 637.89L355.5 637.97L354.86 638.04L354.22 638.11L353.58 638.17L352.94 638.24L352.3 638.31L351.67 638.37L351.03 638.43L350.38 638.5L349.74 638.56L349.1 638.62L349.02 638.62L348.94 638.63L348.86 638.64L348.78 638.64L348.7 638.65L348.62 638.66L348.53 638.66L348.45 638.67L348.37 638.67L348.29 638.68L348.21 638.69L348.13 638.69L348.05 638.7L347.97 638.7L347.89 638.71L347.8 638.71L347.72 638.72L347.64 638.73L347.56 638.73L347.4 638.74L347.32 638.75L347.24 638.75L347.15 638.76L347.07 638.77L346.99 638.77L346.91 638.78L346.83 638.78L346.75 638.79L346.67 638.8L346.59 638.8L346.51 638.81L346.42 638.81L346.34 638.82L346.26 638.83L346.18 638.83L346.1 638.84L346.02 638.85L345.94 638.85L345.86 638.86L345.22 638.91L344.57 638.96L343.93 639.01L343.29 639.06L342.65 639.11L342.01 639.15L341.37 639.2L340.72 639.24L340.08 639.29L339.44 639.33L338.8 639.37L338.15 639.41L337.51 639.45L336.86 639.49L336.22 639.52L335.58 639.56L334.93 639.59L334.28 639.62L333.64 639.66L332.99 639.69L332.35 639.72L331.7 639.74L331.05 639.77L330.41 639.8L329.76 639.82L329.11 639.84L328.46 639.86L327.81 639.88L327.17 639.9L326.52 639.92L325.87 639.93L325.22 639.95L324.57 639.96L323.91 639.97L323.26 639.98L322.61 639.99L321.96 639.99L321.31 640L320.65 640L320 640L319.34 640L318.68 640L318.02 639.99L317.36 639.99L316.71 639.98L316.05 639.97L315.39 639.96L314.74 639.95L314.08 639.93L313.42 639.92L312.77 639.9L312.11 639.88L311.46 639.86L310.8 639.84L310.15 639.82L309.5 639.79L308.84 639.77L308.19 639.74L307.54 639.71L306.89 639.68L306.24 639.65L305.59 639.62L304.94 639.59L304.29 639.55L303.64 639.52L302.99 639.48L302.34 639.44L301.69 639.4L301.04 639.36L300.39 639.32L299.75 639.27L299.1 639.23L298.45 639.18L297.81 639.14L297.16 639.09L296.51 639.04L295.87 638.99L295.22 638.94L294.58 638.89L293.93 638.84L293.86 638.83L293.78 638.82L293.7 638.82L293.62 638.81L293.54 638.8L293.46 638.8L293.38 638.79L293.3 638.78L293.22 638.78L293.14 638.77L293.06 638.77L292.98 638.76L292.91 638.75L292.83 638.75L292.75 638.74L292.67 638.74L292.59 638.73L292.51 638.73L292.27 638.71L292.2 638.7L292.12 638.7L292.04 638.69L291.96 638.69L291.88 638.68L291.8 638.67L291.72 638.67L291.65 638.66L291.57 638.66L291.49 638.65L291.41 638.64L291.33 638.64L291.25 638.63L291.17 638.63L291.1 638.62L291.02 638.61L290.94 638.61L290.86 638.6L290.78 638.59L290.13 638.53L289.49 638.47L288.84 638.41L288.2 638.35L287.55 638.28L286.91 638.22L286.26 638.15L285.62 638.08L284.98 638.01L284.33 637.94L283.69 637.86L283.05 637.79L282.41 637.71L281.77 637.64L281.12 637.56L280.48 637.48L279.84 637.4L279.2 637.31L278.56 637.23L277.92 637.15L277.29 637.06L276.65 636.97L276.01 636.88L275.37 636.79L274.73 636.7L274.1 636.61L273.46 636.52L272.82 636.42L272.19 636.33L271.55 636.23L270.92 636.13L270.28 636.03L269.65 635.93L269.01 635.83L268.38 635.73L267.75 635.62L267.11 635.52L266.48 635.41L265.85 635.3L265.22 635.19L265.16 635.18L265.11 635.17L265 635.16L264.89 635.14L264.84 635.13L264.73 635.11L264.62 635.09L264.52 635.07L264.46 635.06L264.36 635.04L264.25 635.02L264.09 634.99L263.93 634.96L263.77 634.93L263.61 634.91L263.5 634.89L263.34 634.86L263.07 634.81L261.04 634.44L259.01 634.05L256.99 633.65L254.97 633.24L252.96 632.81L250.95 632.38L248.94 631.93L246.94 631.47L244.94 630.99L242.95 630.51L240.97 630.01L238.99 629.49L237.01 628.97L235.04 628.43L233.07 627.89L231.11 627.33L229.15 626.75L227.2 626.17L225.26 625.57L223.32 624.96L221.38 624.34L219.45 623.71L217.53 623.06L215.61 622.41L213.7 621.74L211.79 621.06L209.89 620.37L207.99 619.66L206.1 618.95L204.21 618.22L202.33 617.48L200.46 616.73L198.59 615.97L196.73 615.2L194.87 614.41L193.02 613.61L191.18 612.81L189.34 611.99L187.51 611.16L185.68 610.32L185.64 610.3L185.6 610.28L185.56 610.26L185.52 610.24L185.48 610.22L185.43 610.2L185.39 610.18L185.35 610.16L185.31 610.15L185.27 610.13L185.23 610.11L185.19 610.09L185.15 610.07L185.1 610.05L185.06 610.04L185.02 610.02L184.94 609.98L184.77 609.91L184.69 609.87L184.65 609.85L184.61 609.83L184.57 609.81L184.52 609.8L184.48 609.78L184.44 609.76L184.4 609.74L184.36 609.72L184.32 609.7L184.28 609.68L184.23 609.67L184.19 609.65L184.15 609.63L184.11 609.61L184.07 609.59L184.03 609.57L183.47 609.31L182.91 609.04L182.35 608.77L181.8 608.51L181.24 608.24L180.68 607.97L180.13 607.7L179.57 607.43L179.02 607.15L178.47 606.88L177.91 606.6L177.36 606.33L176.81 606.05L176.26 605.77L175.71 605.49L175.16 605.21L174.61 604.93L174.06 604.64L173.52 604.36L172.97 604.07L172.42 603.79L171.88 603.5L171.33 603.21L170.79 602.92L170.24 602.63L169.7 602.34L169.16 602.05L168.61 601.76L168.07 601.46L167.53 601.17L166.99 600.87L166.45 600.58L165.91 600.28L165.37 599.98L164.83 599.68L164.3 599.38L163.76 599.08L163.22 598.77L162.69 598.47L162.15 598.17L162.05 598.11L161.94 598.05L161.83 597.98L161.72 597.92L161.62 597.86L161.51 597.8L161.4 597.74L161.29 597.68L161.19 597.62L161.08 597.56L160.97 597.49L160.86 597.43L160.76 597.37L160.65 597.31L160.54 597.25L160.44 597.19L160.33 597.13L160.22 597.07L160.11 597L160.01 596.94L159.9 596.88L159.79 596.82L159.69 596.76L159.58 596.7L159.47 596.63L159.36 596.57L159.26 596.51L159.15 596.45L159.04 596.39L158.94 596.32L158.83 596.26L158.72 596.2L158.62 596.14L158.51 596.08L158.4 596.01L158.3 595.95L158.19 595.89L158.08 595.83L157.98 595.76L157.87 595.7L157.38 595.41L156.89 595.12L156.41 594.83L155.92 594.54L155.43 594.25L154.95 593.95L154.46 593.66L153.98 593.36L153.49 593.07L153.01 592.77L152.53 592.48L152.04 592.18L151.56 591.88L151.08 591.58L150.6 591.28L150.12 590.98L149.64 590.68L149.16 590.37L148.68 590.07L148.2 589.76L147.73 589.46L147.25 589.15L146.77 588.85L146.3 588.54L145.82 588.23L145.35 587.92L144.87 587.61L144.4 587.3L143.93 586.99L143.45 586.68L142.98 586.36L142.51 586.05L142.04 585.73L141.57 585.42L141.1 585.1L140.63 584.78L140.16 584.47L139.7 584.15L139.23 583.83L138.76 583.51L138.62 583.41L138.48 583.31L138.33 583.21L138.19 583.11L138.05 583.01L137.9 582.91L137.76 582.81L137.62 582.71L137.47 582.61L137.33 582.5L137.19 582.4L137.04 582.3L136.9 582.2L136.76 582.1L136.62 582L136.47 581.9L136.33 581.8L136.19 581.7L136.05 581.6L135.91 581.49L135.76 581.39L135.62 581.29L135.48 581.19L135.34 581.09L135.2 580.99L135.05 580.88L134.91 580.78L134.77 580.68L134.63 580.58L134.49 580.48L134.35 580.37L134.2 580.27L134.06 580.17L133.92 580.07L133.78 579.97L133.64 579.86L133.5 579.76L133.36 579.66L133.21 579.56L133.07 579.46L132.64 579.14L132.2 578.82L131.77 578.51L131.33 578.19L130.9 577.87L130.46 577.56L130.03 577.24L129.6 576.92L129.16 576.6L128.73 576.28L128.3 575.96L127.87 575.64L127.44 575.31L127.01 574.99L126.58 574.67L126.15 574.34L125.72 574.02L125.29 573.69L124.86 573.37L124.44 573.04L124.01 572.71L123.58 572.38L123.16 572.05L122.73 571.72L122.31 571.39L121.89 571.06L121.46 570.73L121.04 570.4L120.62 570.06L120.2 569.73L119.78 569.39L119.36 569.06L118.94 568.72L118.52 568.38L118.1 568.05L117.69 567.71L117.27 567.37L116.85 567.03L116.44 566.68L116.03 566.34L115.98 566.3L115.92 566.26L115.87 566.22L115.82 566.18L115.77 566.14L115.72 566.1L115.67 566.06L115.62 566.02L115.56 565.98L115.51 565.94L115.46 565.9L115.41 565.86L115.35 565.82L115.3 565.78L115.25 565.74L115.2 565.7L115.14 565.66L115.09 565.63L114.98 565.55L114.93 565.51L114.88 565.47L114.83 565.43L114.77 565.39L114.72 565.36L114.67 565.32L114.62 565.28L114.56 565.24L114.51 565.2L114.46 565.16L114.41 565.12L114.35 565.08L114.3 565.04L114.25 565L114.2 564.96L114.15 564.92L114.1 564.87L114.04 564.83L113.99 564.79L113.94 564.75L103.56 556L103.87 555.73L99.13 551.29L94.48 546.76L89.92 542.14L85.46 537.42L81.09 532.62L76.82 527.73L72.64 522.75L68.57 517.68L64.6 512.54L60.73 507.31L56.96 502L53.3 496.61L49.75 491.15L46.3 485.61L42.97 479.99L39.75 474.31L36.64 468.55L33.65 462.72L30.77 456.83L28.01 450.86L25.37 444.84L22.86 438.75L20.46 432.59L18.19 426.38L16.04 420.11L14.03 413.78L12.14 407.39L10.38 400.95L8.75 394.46L7.26 387.92L5.9 381.33L4.68 374.68L3.59 368L2.65 361.26L1.85 354.49L1.19 347.67L0.67 340.81L0.3 333.91L0.07 326.97L0 320L0.27 306.83L1.06 293.79L2.38 280.9L4.2 268.16L6.51 255.59L9.32 243.19L12.6 230.98L16.34 218.97L20.54 207.16L25.19 195.56L30.27 184.2L35.77 173.07L41.69 162.19L48.01 151.57L54.73 141.21L61.82 131.14L69.29 121.35L77.13 111.87L85.31 102.69L93.83 93.83L102.69 85.31L111.87 77.13L121.35 69.29L131.14 61.82L141.21 54.73L151.57 48.01L162.19 41.69L173.07 35.77L184.2 30.27L195.56 25.19L207.16 20.54L218.97 16.34L230.98 12.6L243.19 9.32L255.59 6.51L268.16 4.2L280.9 2.38L293.79 1.06L306.83 0.27L320 0L333.17 0.27L346.21 1.06ZM314.08 116.44L311.19 116.53L308.33 116.66L305.52 116.82L302.75 117.02L300.02 117.26L297.34 117.53L294.7 117.84L292.1 118.19L289.54 118.57L287.03 118.99L284.55 119.44L282.13 119.93L279.74 120.46L277.4 121.02L275.1 121.62L272.85 122.25L270.63 122.92L268.46 123.63L266.34 124.37L264.26 125.15L262.22 125.97L260.22 126.82L258.27 127.7L256.37 128.63L254.5 129.58L252.69 130.58L250.91 131.61L249.18 132.67L247.49 133.77L245.85 134.91L244.25 136.08L242.7 137.29L241.19 138.53L239.73 139.81L238.31 141.12L236.94 142.47L235.61 143.86L234.32 145.28L232.89 146.98L231.53 148.69L230.27 150.41L229.08 152.15L227.96 153.9L226.92 155.65L225.96 157.41L225.06 159.16L224.23 160.91L223.46 162.65L222.76 164.38L222.11 166.1L221.53 167.8L220.99 169.48L220.51 171.13L220.08 172.77L219.69 174.37L219.35 175.94L219.05 177.47L218.79 178.97L218.57 180.42L218.38 181.83L218.23 183.2L218.1 184.51L218 185.76L217.93 186.96L217.88 188.1L217.84 189.18L217.83 190.19L217.83 191.13L217.84 192L217.86 192.79L217.89 193.5L217.92 194.13L217.96 194.68L217.99 195.13L218.02 195.5L218.05 195.77L218.07 195.94L218.08 196.01L218.18 197.54L218.18 262.35L214.34 265.82L214.03 266.11L213.73 266.4L213.43 266.69L213.14 266.99L212.86 267.3L212.59 267.6L212.32 267.92L212.06 268.23L211.81 268.55L211.56 268.88L211.32 269.21L211.09 269.54L210.87 269.88L210.66 270.22L210.45 270.56L210.25 270.91L210.06 271.26L209.87 271.61L209.7 271.97L209.53 272.33L209.37 272.69L209.22 273.05L209.07 273.42L208.94 273.79L208.81 274.17L208.69 274.55L208.57 274.93L208.47 275.31L208.37 275.69L208.28 276.08L208.2 276.47L208.13 276.86L208.07 277.25L208.01 277.65L207.97 278.04L207.93 278.44L207.9 278.84L207.88 279.24L207.86 279.65L207.86 280.05L207.86 321.3L207.87 321.79L207.89 322.28L207.92 322.76L207.96 323.25L208.02 323.73L208.08 324.2L208.16 324.68L208.25 325.15L208.36 325.61L208.47 326.08L208.6 326.54L208.74 327L208.88 327.45L209.04 327.9L209.22 328.34L209.4 328.78L209.59 329.22L209.8 329.65L210.01 330.07L210.24 330.49L210.47 330.91L210.72 331.32L210.97 331.72L211.24 332.12L211.52 332.51L211.8 332.89L212.1 333.27L212.41 333.64L212.72 334L213.05 334.36L213.38 334.71L213.73 335.05L214.08 335.39L214.45 335.72L214.82 336.03L215.2 336.34L215.59 336.65L215.99 336.94L216.39 337.23L216.81 337.5L220.78 340.07L221.84 344.68L222.58 347.77L223.37 350.81L224.22 353.81L225.12 356.77L226.06 359.67L227.03 362.53L228.05 365.34L229.09 368.09L230.17 370.78L231.27 373.42L232.39 376L233.52 378.52L234.67 380.98L235.83 383.37L237 385.7L238.16 387.96L239.32 390.15L240.48 392.26L241.63 394.31L242.77 396.28L243.88 398.17L244.98 399.98L246.05 401.71L247.09 403.36L248.1 404.92L249.07 406.4L250.01 407.79L250.9 409.09L251.74 410.3L252.53 411.41L253.26 412.43L253.94 413.36L254.55 414.18L255.1 414.9L255.57 415.52L255.97 416.04L256.3 416.44L256.54 416.74L256.69 416.93L256.76 417.01L259.43 420.25L259.44 462.16L259.43 463.51L259.37 464.85L259.28 466.19L259.15 467.52L258.99 468.84L258.79 470.15L258.56 471.46L258.3 472.75L257.99 474.03L257.66 475.3L257.29 476.56L256.89 477.81L256.46 479.05L256 480.27L255.5 481.48L254.97 482.67L254.41 483.85L253.82 485.02L253.2 486.16L252.55 487.29L251.87 488.4L251.16 489.5L250.42 490.57L249.65 491.63L248.86 492.66L248.04 493.68L247.19 494.67L246.31 495.64L245.4 496.59L244.47 497.52L243.51 498.42L242.53 499.3L241.52 500.15L240.49 500.98L239.43 501.78L238.35 502.56L237.24 503.31L236.11 504.03L234.96 504.72L233.79 505.38L141.78 555.57L140.66 556.19L140.7 556.22L140.74 556.25L140.78 556.28L140.82 556.31L140.86 556.34L140.89 556.37L140.93 556.4L140.97 556.43L141.01 556.46L141.05 556.5L141.09 556.53L141.13 556.56L141.17 556.59L141.2 556.62L141.24 556.65L141.28 556.68L141.32 556.71L141.36 556.74L141.4 556.77L141.47 556.83L141.51 556.86L141.55 556.89L141.59 556.92L141.63 556.95L141.66 556.98L141.7 557.01L141.74 557.04L141.78 557.07L141.82 557.1L141.86 557.14L141.9 557.17L141.93 557.2L141.97 557.23L142.01 557.26L142.05 557.29L142.09 557.32L142.13 557.35L142.17 557.38L142.21 557.41L142.59 557.69L142.97 557.97L143.35 558.26L143.73 558.54L144.12 558.82L144.5 559.1L144.88 559.38L145.27 559.66L145.65 559.94L146.04 560.22L146.42 560.5L146.81 560.78L147.2 561.05L147.58 561.33L147.97 561.6L148.36 561.88L148.75 562.15L149.14 562.42L149.52 562.69L149.91 562.96L150.3 563.24L150.69 563.51L151.08 563.77L151.48 564.04L151.87 564.31L152.26 564.58L152.65 564.85L153.04 565.11L153.44 565.38L153.83 565.64L154.22 565.91L154.62 566.17L155.01 566.43L155.41 566.7L155.8 566.96L156.19 567.22L156.59 567.48L156.99 567.74L157.38 568L157.78 568.26L157.9 568.34L158.03 568.43L158.15 568.51L158.28 568.59L158.41 568.67L158.53 568.75L158.66 568.84L158.78 568.92L158.91 569L159.04 569.08L159.16 569.16L159.29 569.24L159.41 569.32L159.54 569.41L159.67 569.49L159.79 569.57L159.92 569.65L160.05 569.73L160.17 569.81L160.3 569.89L160.43 569.97L160.55 570.06L160.68 570.14L160.81 570.22L160.93 570.3L161.06 570.38L161.19 570.46L161.31 570.54L161.44 570.62L161.57 570.7L161.69 570.78L161.82 570.86L161.95 570.95L162.08 571.03L162.2 571.11L162.33 571.19L162.46 571.27L162.58 571.35L162.71 571.43L162.84 571.51L163.27 571.78L163.7 572.04L164.13 572.31L164.56 572.58L164.99 572.85L165.43 573.11L165.86 573.38L166.29 573.64L166.72 573.9L167.16 574.17L167.59 574.43L168.03 574.69L168.46 574.95L168.89 575.21L169.33 575.47L169.77 575.73L170.2 575.99L170.64 576.25L171.07 576.5L171.51 576.76L171.95 577.01L172.39 577.27L172.82 577.52L173.26 577.77L173.7 578.03L174.14 578.28L174.58 578.53L175.02 578.78L175.46 579.03L175.9 579.27L176.35 579.52L176.79 579.77L177.23 580.01L177.67 580.26L178.12 580.5L178.56 580.74L179 580.98L179.45 581.22L179.89 581.46L180.34 581.7L180.4 581.74L180.47 581.77L180.53 581.8L180.59 581.84L180.66 581.87L180.72 581.9L180.78 581.94L180.85 581.97L180.91 582L180.97 582.04L181.04 582.07L181.1 582.1L181.16 582.14L181.23 582.17L181.29 582.2L181.35 582.23L181.42 582.27L181.48 582.3L181.55 582.33L181.61 582.36L181.67 582.4L181.74 582.43L181.8 582.46L181.93 582.53L182.06 582.59L182.12 582.62L182.19 582.66L182.25 582.69L182.31 582.72L182.38 582.75L182.44 582.79L182.51 582.82L182.57 582.85L182.63 582.88L182.7 582.92L182.76 582.95L182.82 582.98L182.89 583.02L183.38 583.27L183.87 583.52L184.36 583.78L184.85 584.03L185.34 584.28L185.83 584.53L186.32 584.78L186.81 585.03L187.3 585.27L187.79 585.52L188.28 585.77L188.78 586.01L189.27 586.26L189.76 586.5L190.26 586.75L190.75 586.99L191.24 587.23L191.74 587.47L192.23 587.71L192.73 587.95L193.23 588.19L193.72 588.42L194.22 588.66L194.72 588.89L195.21 589.13L195.71 589.36L196.21 589.59L196.71 589.82L197.21 590.05L197.71 590.28L198.21 590.51L198.71 590.74L199.21 590.96L199.71 591.19L200.21 591.41L200.71 591.63L201.22 591.85L201.72 592.08L202.22 592.29L202.73 592.51L202.74 592.52L202.75 592.52L202.77 592.53L202.78 592.54L202.8 592.55L202.83 592.56L202.84 592.56L202.85 592.57L202.87 592.58L202.88 592.58L203.41 592.81L203.95 593.04L204.48 593.26L205.02 593.49L205.55 593.71L206.09 593.93L206.62 594.16L207.16 594.38L207.7 594.6L208.24 594.81L208.77 595.03L209.31 595.25L209.85 595.46L210.39 595.68L210.93 595.89L211.47 596.1L212.01 596.31L212.55 596.52L213.09 596.73L213.63 596.94L214.18 597.15L214.72 597.35L215.26 597.56L215.81 597.76L216.35 597.96L216.89 598.16L217.44 598.37L217.98 598.56L218.53 598.76L219.07 598.96L219.62 599.16L220.17 599.35L220.71 599.55L221.26 599.74L221.81 599.93L222.35 600.12L222.9 600.31L223.45 600.5L224 600.69L224.55 600.88L224.58 600.89L224.62 600.9L224.65 600.91L224.68 600.92L224.72 600.94L224.75 600.95L224.82 600.97L224.85 600.98L224.89 600.99L224.92 601.01L224.96 601.02L225.03 601.04L225.1 601.06L225.16 601.09L225.27 601.12L225.34 601.15L225.44 601.18L225.51 601.21L225.54 601.22L225.58 601.23L225.61 601.24L225.65 601.25L225.72 601.28L225.75 601.29L225.78 601.3L225.82 601.31L225.85 601.32L225.89 601.33L225.92 601.34L227.03 601.71L228.13 602.08L229.24 602.44L230.35 602.79L231.47 603.14L232.58 603.49L233.7 603.83L234.81 604.17L235.93 604.5L237.05 604.83L238.17 605.16L239.29 605.48L240.41 605.8L241.54 606.11L242.67 606.41L243.79 606.72L244.92 607.02L246.05 607.31L247.18 607.6L248.31 607.88L249.45 608.16L250.58 608.44L251.72 608.71L252.85 608.98L253.99 609.24L255.13 609.5L256.27 609.75L257.41 610L258.55 610.25L259.7 610.49L260.84 610.72L261.99 610.96L263.13 611.18L264.28 611.4L265.43 611.62L266.58 611.84L267.73 612.04L268.88 612.25L270.03 612.45L271.19 612.64L272.16 612.82L272.71 612.91L273.25 612.99L273.8 613.08L274.35 613.16L274.89 613.25L275.44 613.33L275.99 613.41L276.53 613.49L277.08 613.57L277.63 613.65L278.18 613.73L278.73 613.8L279.27 613.88L279.82 613.95L280.37 614.03L280.92 614.1L281.47 614.17L282.02 614.24L282.57 614.31L283.12 614.37L283.67 614.44L284.22 614.51L284.77 614.57L285.32 614.63L285.87 614.7L286.42 614.76L286.97 614.82L287.53 614.88L288.08 614.94L288.63 615L289.18 615.05L289.73 615.11L290.29 615.17L290.84 615.22L291.39 615.27L291.94 615.33L292.5 615.38L293.05 615.43L293.6 615.48L294.16 615.53L294.25 615.54L294.34 615.55L294.44 615.55L294.53 615.56L294.63 615.57L294.72 615.58L294.82 615.59L294.91 615.59L295.01 615.6L295.1 615.61L295.19 615.62L295.29 615.63L295.38 615.63L295.48 615.64L295.57 615.65L295.67 615.65L295.76 615.66L295.86 615.67L295.95 615.68L296.05 615.68L296.14 615.69L296.24 615.7L296.33 615.7L296.43 615.71L296.52 615.72L296.62 615.72L296.71 615.73L296.81 615.74L296.9 615.74L297.19 615.76L297.28 615.77L297.38 615.78L297.47 615.79L297.57 615.79L297.66 615.8L297.76 615.81L297.85 615.81L297.95 615.82L298.5 615.86L299.05 615.9L299.6 615.94L300.15 615.98L300.7 616.02L301.25 616.05L301.79 616.09L302.34 616.12L302.89 616.16L303.44 616.19L304 616.22L304.55 616.26L305.1 616.29L305.65 616.32L306.2 616.35L306.75 616.38L307.3 616.4L307.85 616.43L308.4 616.45L308.95 616.48L309.5 616.5L310.06 616.52L310.61 616.55L311.16 616.57L311.71 616.58L312.26 616.6L312.81 616.62L313.37 616.63L313.92 616.65L314.47 616.66L315.02 616.67L315.58 616.69L316.13 616.7L316.68 616.7L317.23 616.71L317.79 616.72L318.34 616.72L318.89 616.72L319.45 616.73L320 616.73L320.55 616.73L321.09 616.72L321.64 616.72L322.19 616.72L322.73 616.71L323.28 616.7L323.83 616.7L324.37 616.69L324.92 616.68L325.47 616.66L326.01 616.65L326.56 616.64L327.1 616.62L327.65 616.61L328.19 616.59L328.74 616.57L329.28 616.55L329.83 616.53L330.37 616.51L330.92 616.48L331.46 616.46L332.01 616.44L332.55 616.41L333.1 616.38L333.64 616.36L334.18 616.33L334.73 616.3L335.27 616.27L335.81 616.23L336.36 616.2L336.9 616.17L337.44 616.13L337.99 616.1L338.53 616.06L339.07 616.03L339.61 615.99L340.16 615.95L340.7 615.91L341.24 615.87L341.78 615.83L341.88 615.82L341.98 615.82L342.08 615.81L342.17 615.8L342.27 615.8L342.37 615.79L342.47 615.78L342.56 615.78L342.66 615.77L342.76 615.76L342.95 615.75L343.05 615.74L343.15 615.74L343.25 615.73L343.34 615.72L343.44 615.72L343.54 615.71L343.63 615.7L343.73 615.69L343.83 615.69L343.93 615.68L344.02 615.67L344.12 615.67L344.22 615.66L344.31 615.65L344.41 615.64L344.51 615.64L344.6 615.63L344.7 615.62L344.8 615.61L344.89 615.61L344.99 615.6L345.09 615.59L345.19 615.58L345.28 615.57L345.38 615.57L345.48 615.56L345.57 615.55L345.67 615.54L346.22 615.49L346.77 615.44L347.31 615.39L347.86 615.34L348.41 615.29L348.96 615.24L349.5 615.18L350.05 615.13L350.6 615.08L351.15 615.02L351.69 614.96L352.24 614.9L352.79 614.85L353.33 614.79L353.88 614.73L354.43 614.66L354.97 614.6L355.52 614.54L356.06 614.47L356.61 614.41L357.16 614.34L357.7 614.27L358.25 614.21L358.79 614.14L359.34 614.07L359.88 613.99L360.43 613.92L360.97 613.85L361.51 613.77L362.06 613.7L362.6 613.62L363.15 613.54L363.69 613.46L364.23 613.38L364.78 613.3L365.32 613.22L365.86 613.13L366.4 613.05L366.95 612.96L367.49 612.88L367.5 612.87L367.54 612.87L367.57 612.86L367.6 612.86L367.63 612.85L367.65 612.85L367.68 612.84L367.72 612.83L367.76 612.83L367.88 612.8L367.93 612.79L367.94 612.79L367.97 612.78L368.01 612.78L368.04 612.77L368.07 612.77L368.1 612.76L368.12 612.76L368.69 612.66L369.27 612.57L369.84 612.47L370.42 612.37L370.99 612.27L371.57 612.17L372.14 612.07L372.72 611.96L373.29 611.86L373.87 611.76L374.44 611.65L375.01 611.54L375.59 611.43L376.16 611.32L376.73 611.21L377.31 611.1L377.88 610.99L378.45 610.87L379.02 610.76L379.6 610.64L380.17 610.53L380.74 610.41L381.31 610.29L381.88 610.17L382.45 610.05L383.02 609.92L383.59 609.8L384.16 609.67L384.73 609.55L385.3 609.42L385.87 609.29L386.44 609.16L387 609.03L387.57 608.9L388.14 608.76L388.71 608.63L389.27 608.5L389.84 608.36L390.4 608.22L390.97 608.08L390.98 608.08L390.98 608.08L390.99 608.08L391 608.08L391.02 608.07L391.03 608.07L391.03 608.07L391.04 608.07L391.6 607.93L392.16 607.79L392.72 607.65L393.28 607.51L393.84 607.36L394.4 607.22L394.95 607.07L395.51 606.92L396.07 606.78L396.63 606.63L397.18 606.48L397.74 606.32L398.3 606.17L398.85 606.02L399.41 605.86L399.96 605.71L400.52 605.55L401.07 605.39L401.63 605.23L402.18 605.07L402.74 604.91L403.29 604.75L403.84 604.58L404.4 604.42L404.95 604.25L405.5 604.09L406.05 603.92L406.6 603.75L407.16 603.58L407.71 603.41L408.26 603.24L408.81 603.07L409.36 602.89L409.91 602.72L410.46 602.54L411 602.36L411.55 602.19L412.1 602.01L412.65 601.83L413.2 601.65L413.23 601.63L413.27 601.62L413.31 601.61L413.35 601.6L413.38 601.58L413.42 601.57L413.46 601.56L413.49 601.55L413.53 601.54L413.57 601.52L413.61 601.51L413.64 601.5L413.68 601.48L413.72 601.47L413.75 601.46L413.79 601.45L413.83 601.43L413.87 601.42L413.9 601.41L413.98 601.38L414.09 601.35L414.2 601.31L414.27 601.28L414.34 601.26L414.42 601.23L414.45 601.22L414.49 601.21L414.53 601.2L414.56 601.18L414.6 601.17L414.64 601.16L414.67 601.15L415.72 600.79L416.76 600.43L417.8 600.07L418.84 599.71L419.88 599.34L420.92 598.96L421.95 598.59L422.99 598.2L424.02 597.82L425.05 597.43L426.08 597.03L427.11 596.64L428.13 596.24L429.16 595.83L430.18 595.42L431.2 595.01L432.22 594.59L433.24 594.17L434.26 593.75L435.28 593.32L436.29 592.89L437.3 592.45L438.32 592.01L439.33 591.57L440.33 591.12L441.34 590.67L442.35 590.21L443.35 589.76L444.35 589.29L445.35 588.83L446.35 588.36L447.35 587.89L448.34 587.41L449.33 586.93L450.33 586.44L451.32 585.96L452.31 585.47L453.29 584.97L454.28 584.47L455.26 583.97L455.36 583.92L455.45 583.87L455.55 583.82L455.64 583.78L455.74 583.73L455.83 583.68L455.93 583.63L456.02 583.58L456.12 583.53L456.21 583.49L456.31 583.44L456.4 583.39L456.5 583.34L456.78 583.2L456.88 583.15L456.97 583.1L457.07 583.05L457.16 583L457.26 582.96L457.35 582.91L457.45 582.86L457.54 582.81L457.64 582.76L457.73 582.71L457.83 582.67L457.92 582.62L458.02 582.57L458.11 582.52L458.2 582.47L458.3 582.42L458.39 582.37L458.49 582.32L458.58 582.27L458.68 582.23L458.77 582.18L458.87 582.13L458.96 582.08L459.05 582.03L459.48 581.8L459.91 581.57L460.34 581.34L460.76 581.11L461.19 580.88L461.61 580.65L462.04 580.42L462.46 580.19L462.89 579.95L463.31 579.72L463.73 579.49L464.16 579.25L464.58 579.01L465 578.78L465.42 578.54L465.84 578.3L466.26 578.06L466.68 577.82L467.1 577.58L467.52 577.34L467.94 577.1L468.36 576.85L468.78 576.61L469.2 576.37L469.61 576.12L470.03 575.88L470.45 575.63L470.87 575.38L471.28 575.13L471.7 574.89L472.11 574.64L472.53 574.39L472.94 574.14L473.36 573.89L473.77 573.64L474.18 573.38L474.6 573.13L475.01 572.88L475.42 572.62L475.83 572.37L475.98 572.28L476.13 572.19L476.28 572.09L476.42 572L476.57 571.91L476.72 571.82L476.86 571.72L477.01 571.63L477.16 571.54L477.3 571.45L477.45 571.35L477.59 571.26L477.74 571.17L477.88 571.08L478.03 570.98L478.18 570.89L478.32 570.8L478.47 570.7L478.61 570.61L478.76 570.51L478.9 570.42L479.05 570.33L479.19 570.23L479.34 570.14L479.48 570.05L479.63 569.95L479.77 569.86L479.92 569.76L480.06 569.67L480.2 569.58L480.35 569.48L480.49 569.39L480.64 569.29L480.78 569.2L480.93 569.11L481.22 568.92L481.36 568.82L481.51 568.73L481.65 568.63L481.97 568.43L482.28 568.22L482.6 568.02L482.91 567.81L483.22 567.6L483.54 567.4L483.85 567.19L484.17 566.98L484.48 566.77L484.79 566.56L485.1 566.35L485.42 566.14L485.73 565.93L486.04 565.72L486.35 565.51L486.66 565.29L486.98 565.08L487.29 564.87L487.6 564.65L487.91 564.44L488.22 564.23L488.53 564.01L488.84 563.8L489.15 563.58L489.46 563.37L489.77 563.15L490.08 562.93L490.38 562.72L490.69 562.5L491 562.28L491.31 562.06L491.62 561.84L491.92 561.62L492.23 561.41L492.54 561.19L492.84 560.97L493.15 560.74L493.46 560.52L493.76 560.3L494.07 560.08L494.16 560.01L494.26 559.95L494.35 559.88L494.45 559.81L494.54 559.74L494.64 559.68L494.73 559.61L494.82 559.54L494.92 559.47L495.01 559.41L495.11 559.34L495.2 559.27L495.3 559.2L495.49 559.07L495.58 559L495.68 558.94L495.77 558.87L495.87 558.8L495.96 558.73L496.06 558.67L496.15 558.6L496.25 558.53L496.34 558.46L496.44 558.39L496.53 558.33L496.63 558.26L496.72 558.19L496.82 558.12L496.91 558.05L497.01 557.99L497.1 557.92L497.19 557.85L497.29 557.78L497.38 557.71L497.48 557.64L497.57 557.57L497.66 557.5L497.76 557.43L497.85 557.36L497.8 557.33L497.67 557.26L497.62 557.24L497.57 557.21L497.53 557.19L497.43 557.14L497.39 557.11L497.34 557.09L497.29 557.07L497.25 557.04L497.2 557.02L497.16 556.99L497.11 556.97L497.06 556.94L497.02 556.92L496.97 556.9L496.92 556.87L496.88 556.85L496.83 556.82L496.78 556.8L496.74 556.77L496.69 556.75L496.64 556.73L496.6 556.7L496.55 556.68L496.5 556.65L496.46 556.63L496.41 556.61L496.36 556.58L496.32 556.56L496.27 556.53L496.22 556.51L496.18 556.49L496.13 556.46L496.08 556.44L496.04 556.42L495.99 556.39L397.46 507.14L396.22 506.49L394.99 505.82L393.8 505.11L392.62 504.37L391.48 503.61L390.36 502.81L389.26 501.99L388.19 501.14L387.15 500.27L386.13 499.36L385.15 498.43L384.19 497.48L383.26 496.5L382.35 495.5L381.48 494.48L380.64 493.43L379.82 492.36L379.04 491.27L378.29 490.16L377.57 489.02L376.88 487.87L376.22 486.7L375.59 485.51L375 484.31L374.44 483.09L373.91 481.85L373.42 480.59L372.96 479.32L372.54 478.04L372.15 476.74L371.79 475.43L371.48 474.1L371.19 472.77L370.95 471.42L370.74 470.06L370.57 468.69L370.43 467.31L370.34 465.93L370.28 464.53L370.26 463.13L370.26 420.08L373.14 416.79L373.34 416.57L373.53 416.35L373.72 416.12L373.92 415.89L374.12 415.65L374.32 415.42L374.52 415.18L374.72 414.93L374.92 414.69L375.13 414.44L375.33 414.19L375.54 413.93L375.75 413.67L375.96 413.41L376.17 413.15L376.38 412.88L376.59 412.61L376.81 412.34L377.02 412.07L377.24 411.79L377.45 411.51L377.67 411.23L377.89 410.94L378.11 410.65L378.33 410.36L378.55 410.07L378.77 409.78L378.99 409.48L379.22 409.18L379.44 408.88L379.67 408.58L379.89 408.27L380.12 407.96L380.34 407.65L380.57 407.34L380.8 407.02L381.02 406.71L381.25 406.39L381.48 406.07L381.71 405.75L382.63 404.43L383.55 403.1L384.45 401.77L385.35 400.43L386.24 399.08L387.11 397.72L387.98 396.35L388.83 394.98L389.68 393.6L390.51 392.21L391.34 390.81L392.15 389.4L392.96 387.99L393.75 386.57L394.54 385.14L395.31 383.71L396.08 382.27L396.83 380.82L397.57 379.36L398.31 377.9L399.03 376.43L399.74 374.95L400.44 373.46L401.13 371.97L401.82 370.47L402.49 368.97L403.15 367.46L403.8 365.94L404.43 364.41L405.06 362.88L405.68 361.34L406.29 359.79L406.88 358.24L407.47 356.68L408.04 355.12L408.61 353.54L409.16 351.97L409.7 350.38L410.23 348.79L410.75 347.19L412.61 341.43L418.4 339.65L419 339.46L419.59 339.24L420.18 339.01L420.75 338.76L421.31 338.49L421.87 338.2L422.41 337.9L422.94 337.58L423.45 337.25L423.96 336.9L424.46 336.54L424.94 336.16L425.41 335.77L425.86 335.36L426.3 334.94L426.73 334.51L427.15 334.07L427.55 333.61L427.93 333.14L428.31 332.66L428.66 332.17L429 331.67L429.33 331.16L429.63 330.64L429.93 330.11L430.2 329.57L430.46 329.03L430.7 328.47L430.93 327.91L431.13 327.34L431.32 326.76L431.49 326.18L431.64 325.59L431.77 324.99L431.88 324.39L431.97 323.79L432.05 323.18L432.1 322.56L432.13 321.95L432.14 321.33L432.14 280.08L432.14 279.67L432.12 279.27L432.1 278.86L432.07 278.46L432.03 278.07L431.99 277.67L431.93 277.27L431.87 276.88L431.79 276.49L431.71 276.1L431.63 275.71L431.53 275.33L431.42 274.95L431.31 274.57L431.19 274.19L431.06 273.81L430.92 273.44L430.78 273.07L430.63 272.71L430.47 272.34L430.3 271.98L430.12 271.63L429.94 271.27L429.74 270.92L429.54 270.58L429.34 270.23L429.12 269.89L428.9 269.56L428.67 269.23L428.43 268.9L428.19 268.57L427.94 268.25L427.68 267.94L427.41 267.62L427.14 267.32L426.85 267.01L426.57 266.71L426.27 266.42L425.97 266.13L425.66 265.84L421.82 262.38L421.92 196.04L421.93 195.97L421.95 195.8L421.97 195.52L422 195.15L422.03 194.69L422.06 194.14L422.09 193.5L422.11 192.78L422.13 191.98L422.13 191.1L422.13 190.15L422.1 189.13L422.06 188.04L422 186.88L421.92 185.67L421.82 184.4L421.68 183.07L421.52 181.69L421.32 180.27L421.09 178.8L420.83 177.29L420.52 175.74L420.17 174.16L419.78 172.54L419.34 170.9L418.85 169.23L418.31 167.54L417.72 165.83L417.07 164.11L416.36 162.37L415.59 160.63L414.75 158.88L413.85 157.12L412.88 155.37L411.84 153.62L410.73 151.88L409.54 150.15L408.27 148.44L406.91 146.74L405.48 145.06L404.19 143.65L402.86 142.27L401.48 140.93L400.06 139.63L398.6 138.36L397.09 137.13L395.54 135.93L393.94 134.76L392.3 133.64L390.61 132.54L388.88 131.49L387.11 130.47L385.29 129.48L383.43 128.53L381.53 127.61L379.58 126.73L377.59 125.89L375.56 125.08L373.48 124.31L371.36 123.57L369.2 122.87L366.99 122.21L364.74 121.58L362.45 120.98L360.12 120.42L357.74 119.9L355.32 119.41L352.86 118.96L350.35 118.55L347.8 118.17L345.21 117.83L342.58 117.52L339.9 117.25L337.19 117.01L334.43 116.82L331.63 116.65L328.78 116.53L325.9 116.44L322.97 116.38L320 116.36L317.02 116.38L314.08 116.44ZM295.7 24.26L283.74 25.48L271.93 27.16L260.27 29.31L248.78 31.91L237.45 34.95L226.31 38.42L215.36 42.32L204.61 46.63L194.07 51.34L183.75 56.44L173.66 61.93L163.81 67.79L154.21 74.02L144.87 80.6L135.79 87.52L127 94.79L118.49 102.37L110.28 110.28L102.37 118.49L94.79 127L87.52 135.79L80.6 144.87L74.02 154.21L67.79 163.81L61.93 173.66L56.44 183.75L51.34 194.07L46.63 204.61L42.32 215.36L38.42 226.31L34.95 237.45L31.91 248.78L29.31 260.27L27.16 271.93L25.48 283.74L24.26 295.7L23.52 307.79L23.27 320L23.34 326.55L23.56 333.06L23.91 339.54L24.4 345.98L25.03 352.38L25.79 358.74L26.69 365.06L27.72 371.34L28.88 377.57L30.17 383.76L31.59 389.9L33.14 395.99L34.81 402.03L36.61 408.02L38.52 413.95L40.56 419.83L42.72 425.66L45 431.42L47.39 437.13L49.9 442.77L52.52 448.36L55.25 453.88L58.09 459.33L61.04 464.72L64.1 470.04L67.27 475.29L70.54 480.47L73.91 485.57L77.38 490.61L80.96 495.57L84.63 500.45L88.4 505.25L92.27 509.97L96.23 514.61L100.28 519.17L104.43 523.65L108.66 528.03L112.99 532.34L117.4 536.55L121.89 540.67L122.11 540.52L122.33 540.36L122.55 540.21L122.76 540.05L122.98 539.9L123.2 539.75L123.42 539.6L123.64 539.45L123.85 539.3L124.07 539.15L124.29 539L124.51 538.86L124.73 538.71L124.95 538.57L125.16 538.42L125.38 538.28L125.6 538.14L125.82 538L126.04 537.86L126.26 537.72L126.48 537.58L126.69 537.44L126.91 537.31L127.13 537.17L127.35 537.04L127.57 536.9L127.79 536.77L128.01 536.64L128.23 536.51L128.45 536.38L128.67 536.25L128.88 536.12L129.1 535.99L129.32 535.87L129.54 535.74L129.76 535.62L129.98 535.5L130.2 535.37L130.42 535.25L130.64 535.13L222.65 484.95L223.27 484.6L223.88 484.23L224.47 483.85L225.06 483.46L225.63 483.05L226.18 482.62L226.73 482.19L227.26 481.74L227.78 481.27L228.28 480.8L228.77 480.31L229.25 479.81L229.71 479.29L230.16 478.77L230.59 478.24L231.01 477.69L231.42 477.13L231.81 476.57L232.18 475.99L232.54 475.4L232.88 474.81L233.21 474.2L233.52 473.59L233.81 472.97L234.09 472.34L234.35 471.7L234.6 471.06L234.83 470.41L235.04 469.75L235.23 469.09L235.41 468.42L235.57 467.74L235.71 467.06L235.83 466.37L235.93 465.68L236.02 464.98L236.09 464.28L236.13 463.58L236.16 462.87L236.17 462.16L236.17 428.49L235.61 427.74L235.01 426.93L234.36 426.05L233.68 425.1L232.95 424.09L232.2 423.01L231.4 421.87L230.58 420.66L229.73 419.39L228.85 418.07L227.95 416.68L227.02 415.23L226.07 413.72L225.1 412.16L224.12 410.54L223.12 408.86L222.11 407.13L221.09 405.34L220.06 403.5L219.02 401.61L217.98 399.66L216.94 397.67L215.9 395.63L214.86 393.53L213.82 391.39L212.79 389.2L211.77 386.97L210.76 384.69L209.76 382.37L208.77 380L207.8 377.59L206.85 375.14L205.93 372.65L205.02 370.12L204.14 367.55L203.28 364.94L202.46 362.29L201.67 359.61L200.91 356.89L200.18 354.14L199.45 353.53L198.73 352.9L198.04 352.26L197.35 351.61L196.68 350.94L196.03 350.26L195.4 349.57L194.78 348.86L194.18 348.14L193.59 347.41L193.02 346.67L192.47 345.92L191.94 345.15L191.42 344.38L190.92 343.59L190.44 342.79L189.98 341.99L189.53 341.17L189.1 340.34L188.69 339.51L188.3 338.66L187.93 337.81L187.58 336.95L187.24 336.08L186.93 335.21L186.63 334.32L186.35 333.43L186.1 332.53L185.86 331.63L185.64 330.71L185.44 329.8L185.26 328.87L185.11 327.95L184.97 327.01L184.85 326.07L184.76 325.13L184.68 324.18L184.63 323.23L184.6 322.27L184.59 321.31L184.59 280.06L184.59 279.31L184.62 278.55L184.65 277.8L184.7 277.05L184.76 276.3L184.84 275.55L184.92 274.8L185.03 274.06L185.14 273.32L185.27 272.58L185.41 271.85L185.57 271.11L185.74 270.38L185.92 269.66L186.11 268.94L186.32 268.22L186.54 267.5L186.77 266.79L187.01 266.08L187.27 265.38L187.54 264.68L187.82 263.99L188.11 263.3L188.42 262.62L188.74 261.94L189.07 261.27L189.41 260.6L189.76 259.94L190.13 259.28L190.51 258.63L190.9 257.99L191.3 257.35L191.71 256.72L192.13 256.09L192.57 255.48L193.01 254.87L193.47 254.26L193.94 253.67L194.42 253.08L194.91 252.5L194.91 198.19L194.86 197.69L194.81 197.08L194.76 196.37L194.71 195.57L194.67 194.68L194.63 193.69L194.6 192.63L194.59 191.47L194.59 190.24L194.61 188.93L194.65 187.55L194.71 186.1L194.81 184.58L194.92 183L195.07 181.36L195.26 179.66L195.48 177.91L195.74 176.1L196.04 174.25L196.39 172.35L196.79 170.41L197.23 168.44L197.73 166.42L198.28 164.38L198.89 162.31L199.56 160.21L200.3 158.09L201.1 155.95L201.97 153.8L202.91 151.63L203.92 149.45L205.02 147.27L206.19 145.08L207.44 142.89L208.77 140.71L210.2 138.53L211.71 136.37L213.32 134.21L215.02 132.07L216.82 129.95L218.45 128.14L220.14 126.37L221.87 124.65L223.65 122.98L225.48 121.34L227.36 119.76L229.29 118.22L231.27 116.72L233.3 115.27L235.38 113.87L237.5 112.51L239.68 111.2L241.9 109.93L244.17 108.71L246.49 107.54L248.86 106.41L251.28 105.32L253.74 104.29L256.26 103.29L258.82 102.35L261.43 101.45L264.09 100.59L266.79 99.78L269.54 99.02L272.34 98.3L275.19 97.63L278.09 97.01L281.03 96.43L284.02 95.9L287.06 95.41L290.14 94.97L293.27 94.58L296.45 94.23L299.67 93.93L302.95 93.67L306.26 93.46L309.63 93.3L313.04 93.18L316.5 93.11L320 93.09L323.5 93.11L326.96 93.18L330.37 93.3L333.74 93.46L337.05 93.67L340.33 93.93L343.55 94.23L346.73 94.58L349.86 94.97L352.94 95.41L355.98 95.9L358.97 96.43L361.91 97.01L364.81 97.63L367.66 98.3L370.46 99.02L373.21 99.78L375.91 100.59L378.57 101.45L381.18 102.35L383.74 103.29L386.26 104.29L388.72 105.33L391.14 106.41L393.51 107.54L395.83 108.72L398.1 109.94L400.32 111.2L402.5 112.52L404.62 113.88L406.7 115.28L408.73 116.73L410.71 118.23L412.64 119.77L414.52 121.35L416.35 122.98L418.13 124.66L419.86 126.38L421.55 128.15L423.18 129.97L424.98 132.09L426.68 134.22L428.29 136.38L429.8 138.55L431.23 140.72L432.56 142.91L433.81 145.09L434.98 147.28L436.08 149.46L437.09 151.64L438.03 153.81L438.9 155.96L439.7 158.1L440.44 160.22L441.11 162.32L441.72 164.39L442.27 166.43L442.77 168.45L443.21 170.42L443.61 172.36L443.96 174.26L444.26 176.11L444.52 177.92L444.74 179.67L444.93 181.37L445.08 183.01L445.19 184.6L445.29 186.11L445.35 187.56L445.39 188.95L445.41 190.25L445.41 191.49L445.4 192.64L445.37 193.71L445.33 194.69L445.29 195.58L445.24 196.38L445.19 197.09L445.14 197.7L445.09 198.2L445.09 252.51L445.58 253.09L446.06 253.68L446.53 254.27L446.99 254.88L447.44 255.49L447.87 256.11L448.29 256.73L448.71 257.36L449.11 258L449.5 258.64L449.87 259.29L450.24 259.95L450.59 260.61L450.94 261.28L451.27 261.95L451.58 262.63L451.89 263.31L452.18 264L452.47 264.7L452.73 265.39L452.99 266.1L453.24 266.8L453.47 267.51L453.69 268.23L453.89 268.95L454.09 269.67L454.27 270.4L454.43 271.13L454.59 271.86L454.73 272.59L454.86 273.33L454.97 274.07L455.08 274.82L455.17 275.56L455.24 276.31L455.3 277.06L455.35 277.81L455.38 278.56L455.41 279.32L455.41 280.08L455.41 321.33L455.39 322.57L455.34 323.8L455.25 325.02L455.13 326.24L454.97 327.44L454.78 328.64L454.56 329.83L454.3 331L454.02 332.17L453.69 333.32L453.34 334.46L452.96 335.58L452.54 336.69L452.1 337.79L451.62 338.88L451.12 339.94L450.58 341L450.02 342.03L449.43 343.05L448.81 344.05L448.16 345.04L447.49 346L446.79 346.95L446.06 347.88L445.31 348.78L444.53 349.67L443.72 350.53L442.89 351.38L442.04 352.2L441.16 353L440.26 353.77L439.34 354.52L438.39 355.25L437.42 355.95L436.43 356.62L435.41 357.27L434.38 357.9L433.32 358.49L432.25 359.06L431.15 359.6L430.59 361.21L430.01 362.82L429.43 364.42L428.83 366.02L428.22 367.61L427.61 369.2L426.98 370.78L426.34 372.35L425.7 373.92L425.04 375.48L424.37 377.03L423.7 378.58L423.01 380.12L422.31 381.66L421.6 383.19L420.89 384.71L420.16 386.23L419.42 387.74L418.67 389.24L417.92 390.74L417.15 392.23L416.37 393.71L415.58 395.19L414.79 396.66L413.98 398.12L413.16 399.58L412.34 401.02L411.5 402.47L410.65 403.9L409.8 405.33L408.93 406.75L408.06 408.16L407.17 409.57L406.28 410.97L405.37 412.36L404.46 413.75L403.54 415.12L402.6 416.49L401.66 417.86L400.71 419.21L400.52 419.47L400.34 419.73L400.15 419.99L399.97 420.25L399.78 420.51L399.59 420.77L399.41 421.02L399.23 421.27L399.04 421.53L398.86 421.78L398.67 422.03L398.49 422.28L398.31 422.53L398.13 422.77L397.95 423.02L397.76 423.26L397.58 423.5L397.4 423.74L397.22 423.98L397.04 424.22L396.86 424.46L396.68 424.7L396.5 424.93L396.33 425.16L396.15 425.4L395.97 425.63L395.79 425.86L395.62 426.09L395.44 426.31L395.26 426.54L395.09 426.76L394.91 426.98L394.74 427.21L394.56 427.43L394.39 427.65L394.22 427.86L394.05 428.08L393.87 428.29L393.7 428.51L393.53 428.72L393.53 463.13L393.54 463.87L393.57 464.6L393.62 465.33L393.69 466.06L393.78 466.78L393.89 467.49L394.02 468.2L394.17 468.91L394.34 469.61L394.53 470.3L394.73 470.98L394.96 471.66L395.2 472.33L395.46 472.99L395.73 473.64L396.03 474.28L396.34 474.92L396.67 475.55L397.02 476.16L397.38 476.77L397.76 477.37L398.16 477.95L398.57 478.53L399 479.09L399.44 479.64L399.9 480.18L400.38 480.71L400.87 481.23L401.38 481.73L401.9 482.22L402.43 482.69L402.98 483.16L403.54 483.61L404.12 484.04L404.71 484.46L405.32 484.86L405.93 485.25L406.57 485.62L407.21 485.98L407.87 486.32L506.39 535.58L506.66 535.71L506.92 535.84L507.18 535.98L507.45 536.12L507.71 536.25L507.97 536.39L508.24 536.54L508.5 536.68L508.76 536.82L509.02 536.97L509.28 537.11L509.54 537.26L509.81 537.41L510.07 537.56L510.33 537.71L510.59 537.86L510.85 538.01L511.11 538.17L511.37 538.32L511.63 538.48L511.89 538.63L512.14 538.79L512.4 538.95L512.66 539.11L512.92 539.28L513.18 539.44L513.44 539.6L513.7 539.77L513.95 539.93L514.21 540.1L514.47 540.27L514.73 540.44L514.98 540.61L515.24 540.78L515.5 540.95L515.76 541.12L516.01 541.3L516.27 541.47L516.53 541.65L516.78 541.82L521.33 537.7L525.8 533.48L530.18 529.17L534.47 524.78L538.66 520.29L542.77 515.72L546.78 511.07L550.7 506.33L554.52 501.52L558.24 496.62L561.86 491.64L565.38 486.59L568.8 481.46L572.12 476.26L575.32 470.98L578.42 465.64L581.42 460.22L584.3 454.74L587.07 449.19L589.73 443.58L592.27 437.9L594.69 432.16L597 426.36L599.19 420.51L601.26 414.59L603.2 408.62L605.02 402.6L606.72 396.52L608.28 390.39L609.72 384.21L611.03 377.98L612.21 371.71L613.26 365.39L614.17 359.02L614.95 352.61L615.58 346.17L616.08 339.68L616.44 333.16L616.65 326.6L616.73 320L616.48 307.79L615.74 295.7L614.52 283.74L612.84 271.93L610.69 260.27L608.09 248.78L605.05 237.45L601.58 226.31L597.68 215.36L593.37 204.61L588.66 194.07L583.56 183.75L578.07 173.66L572.21 163.81L565.98 154.21L559.4 144.87L552.48 135.79L545.21 127L537.63 118.49L529.72 110.28L521.51 102.37L513 94.79L504.21 87.52L495.13 80.6L485.79 74.02L476.19 67.79L466.34 61.93L456.25 56.44L445.93 51.34L435.39 46.63L424.64 42.32L413.69 38.42L402.55 34.95L391.22 31.91L379.73 29.31L368.07 27.16L356.26 25.48L344.3 24.26L332.21 23.52L320 23.27L307.79 23.52L295.7 24.26Z" id="bfMyhhuJZ"></path></defs><g><g><g><use xlink:href="#bfMyhhuJZ" opacity="1" fill="#f9f9f9" fill-opacity="1"></use><g><use xlink:href="#bfMyhhuJZ" opacity="1" fill-opacity="0" stroke="#ffffff" stroke-width="1" stroke-opacity="0"></use></g></g></g></g></svg>